<svg width="32" height="32" viewBox="0 0 32 32" fill="none" xmlns="http://www.w3.org/2000/svg">
<path fill-rule="evenodd" clip-rule="evenodd" d="M11.4387 1.50903C11.6758 1.50903 11.8984 1.62355 12.0362 1.81651L12.6629 2.6939C12.663 2.69402 12.6628 2.69379 12.6629 2.6939C12.8646 2.97607 12.9872 3.3124 13.0358 3.65348C13.0845 3.99579 13.0605 4.35205 12.9627 4.68305C12.8654 5.0122 12.6912 5.32757 12.4334 5.56873C12.1718 5.81359 11.8266 5.97629 11.4387 5.97629C11.0508 5.97629 10.7056 5.81359 10.4439 5.56873C10.1862 5.32757 10.012 5.0122 9.9147 4.68305C9.81685 4.35205 9.79285 3.99578 9.8416 3.65348C9.89018 3.3124 10.0125 2.97642 10.2142 2.69426L10.8412 1.81651C10.979 1.62355 11.2016 1.50903 11.4387 1.50903ZM11.4387 3.50658L11.4092 3.54788C11.3627 3.61294 11.3155 3.71981 11.2955 3.86056C11.2756 4.00022 11.2866 4.1436 11.323 4.26672C11.357 4.38155 11.4047 4.45234 11.4387 4.48783C11.4727 4.45234 11.5204 4.38155 11.5544 4.26672C11.5907 4.1436 11.6018 4.00022 11.5819 3.86056C11.5618 3.71981 11.515 3.61329 11.4684 3.54823L11.4387 3.50658Z" fill="#E44160"/>
<path fill-rule="evenodd" clip-rule="evenodd" d="M16.0879 1.50903C16.325 1.50903 16.5475 1.62355 16.6854 1.81651L17.3121 2.6939C17.3122 2.69402 17.312 2.69379 17.3121 2.6939C17.5138 2.97607 17.6364 3.3124 17.6849 3.65348C17.7337 3.99579 17.7097 4.35205 17.6118 4.68305C17.5145 5.0122 17.3403 5.32757 17.0826 5.56873C16.8209 5.81359 16.4758 5.97629 16.0879 5.97629C15.7 5.97629 15.3548 5.81359 15.0931 5.56873C14.8354 5.32757 14.6612 5.0122 14.5639 4.68305C14.466 4.35205 14.442 3.99578 14.4908 3.65348C14.5394 3.3124 14.6616 2.97642 14.8634 2.69426L15.4904 1.81651C15.6282 1.62355 15.8507 1.50903 16.0879 1.50903ZM16.0879 3.50658L16.0584 3.54788C16.0118 3.61294 15.9647 3.71981 15.9447 3.86056C15.9248 4.00022 15.9358 4.1436 15.9722 4.26672C16.0061 4.38155 16.0539 4.45234 16.0879 4.48783C16.1219 4.45234 16.1696 4.38155 16.2035 4.26672C16.2399 4.1436 16.2509 4.00022 16.231 3.86056C16.211 3.71981 16.1641 3.61329 16.1176 3.54823L16.0879 3.50658Z" fill="#E44160"/>
<path fill-rule="evenodd" clip-rule="evenodd" d="M20.7373 1.50903C20.9744 1.50903 21.1969 1.62355 21.3348 1.81651L21.9615 2.6939C21.9616 2.69402 21.9614 2.69379 21.9615 2.6939C22.1632 2.97607 22.2858 3.3124 22.3344 3.65348C22.3831 3.99579 22.3591 4.35205 22.2613 4.68305C22.164 5.0122 21.9898 5.32757 21.732 5.56873C21.4703 5.81359 21.1252 5.97629 20.7373 5.97629C20.3494 5.97629 20.0042 5.81359 19.7425 5.56873C19.4848 5.32757 19.3106 5.0122 19.2133 4.68305C19.1154 4.35205 19.0914 3.99578 19.1402 3.65348C19.1888 3.3124 19.3111 2.97642 19.5128 2.69426L20.1398 1.81651C20.2776 1.62355 20.5001 1.50903 20.7373 1.50903ZM20.7373 3.50658L20.7078 3.54788C20.6612 3.61294 20.6141 3.71981 20.5941 3.86056C20.5742 4.00022 20.5852 4.1436 20.6216 4.26672C20.6555 4.38155 20.7033 4.45234 20.7373 4.48783C20.7713 4.45234 20.819 4.38155 20.8529 4.26672C20.8893 4.1436 20.9003 4.00022 20.8805 3.86056C20.8604 3.71981 20.8135 3.61329 20.767 3.54823L20.7373 3.50658Z" fill="#E44160"/>
<path fill-rule="evenodd" clip-rule="evenodd" d="M12.4212 7.63892C12.4212 7.08663 11.9735 6.63892 11.4212 6.63892C10.8689 6.63892 10.4212 7.08663 10.4212 7.63892V9.49211C10.4212 9.50874 10.4216 9.52528 10.4224 9.54172C7.99587 9.88523 6.12956 11.9707 6.12956 14.4921V17.0305C6.03073 17.0419 5.93374 17.0533 5.83859 17.0647C3.47438 17.3488 1.87956 19.3838 1.87956 21.7651V23.2543C1.81263 23.3165 1.81282 23.3167 1.81301 23.3169L1.81389 23.3179L1.81577 23.3199L1.81999 23.3244L1.83024 23.3351C1.8379 23.3431 1.84719 23.3526 1.85815 23.3635L1.87956 23.3846V27.8241C1.87956 29.2969 3.07346 30.4908 4.54622 30.4908H27.4629C28.9357 30.4908 30.1296 29.2969 30.1296 27.8241V23.384L30.1421 23.3719C30.1531 23.3612 30.1624 23.3519 30.17 23.3442L30.1802 23.3337L30.1844 23.3294L30.1862 23.3275L30.1871 23.3266C30.1873 23.3264 30.1875 23.3262 30.1296 23.2709V21.6111C30.1296 19.3034 28.6225 17.3163 26.3342 17.0181C26.1872 16.9989 26.0357 16.9799 25.8796 16.9611V14.4921C25.8796 12.0859 24.1798 10.0766 21.9155 9.59956C21.9193 9.56426 21.9212 9.52841 21.9212 9.49211V7.63892C21.9212 7.08663 21.4735 6.63892 20.9212 6.63892C20.3689 6.63892 19.9212 7.08663 19.9212 7.63892V9.49211H17.1712V7.63892C17.1712 7.08663 16.7235 6.63892 16.1712 6.63892C15.6189 6.63892 15.1712 7.08663 15.1712 7.63892V9.49211H12.4212V7.63892ZM3.87956 27.8241V24.5964C4.85694 24.9847 6.19416 25.3036 7.9421 25.3036C10.0101 25.3036 11.0781 24.852 12.0807 24.428L12.167 24.3916C13.0753 24.0081 13.9917 23.637 16.0046 23.637C18.0184 23.637 18.9458 24.0085 19.8596 24.3923L19.9561 24.4329C20.9574 24.8543 22.0252 25.3036 24.0671 25.3036C25.8098 25.3036 27.1497 24.9801 28.1296 24.5895V27.8241C28.1296 28.1923 27.8311 28.4908 27.4629 28.4908H4.54622C4.17803 28.4908 3.87956 28.1923 3.87956 27.8241ZM27.7637 22.5679C27.9006 22.5026 28.0224 22.4378 28.1296 22.3762V21.6111C28.1296 20.1543 27.2225 19.1507 26.0758 19.0013C23.8931 18.7169 20.605 18.454 16.0212 18.492C11.5316 18.5293 8.27576 18.7862 6.07724 19.0504C4.84299 19.1988 3.87956 20.265 3.87956 21.7651V22.3833C3.98295 22.443 4.10023 22.5057 4.23195 22.5689C4.96379 22.9206 6.16471 23.3036 7.9421 23.3036C9.60618 23.3036 10.386 22.9736 11.2868 22.5923L11.3891 22.549C12.4548 22.0991 13.6425 21.637 16.0046 21.637C18.3658 21.637 19.5634 22.0987 20.634 22.5483L20.7431 22.5942C21.649 22.9757 22.4276 23.3036 24.0671 23.3036C25.822 23.3036 27.0239 22.9213 27.7637 22.5679ZM23.8796 16.7575V14.4921C23.8796 12.8353 22.5364 11.4921 20.8796 11.4921H11.1296C9.4727 11.4921 8.12956 12.8353 8.12956 14.4921V16.8315C10.1847 16.6566 12.7892 16.5188 16.0046 16.4921C19.22 16.4654 21.8244 16.584 23.8796 16.7575Z" fill="#E44160"/>
</svg>
