<svg width="16" height="10" viewBox="0 0 16 10" fill="none" xmlns="http://www.w3.org/2000/svg">
<path fill-rule="evenodd" clip-rule="evenodd" d="M0.833252 1.33333C0.833252 1.0802 1.05711 0.875 1.33325 0.875H14.6666C14.9427 0.875 15.1666 1.0802 15.1666 1.33333V8.66667C15.1666 8.9198 14.9427 9.125 14.6666 9.125H1.33325C1.05711 9.125 0.833252 8.9198 0.833252 8.66667V1.33333ZM1.83325 1.79167V8.20833H14.1666V1.79167H1.83325Z" fill="#414F5C"/>
<path fill-rule="evenodd" clip-rule="evenodd" d="M0.833252 1.33333C0.833252 1.0802 1.05711 0.875 1.33325 0.875H3.99992C4.27606 0.875 4.49992 1.0802 4.49992 1.33333C4.49992 2.9365 3.08215 4.23611 1.33325 4.23611C1.05711 4.23611 0.833252 4.03091 0.833252 3.77778V1.33333ZM1.83325 1.79167V3.2663C2.62831 3.09414 3.25414 2.52048 3.44194 1.79167H1.83325Z" fill="#414F5C"/>
<path fill-rule="evenodd" clip-rule="evenodd" d="M0.833252 6.22201C0.833252 5.96887 1.05711 5.76367 1.33325 5.76367C3.08215 5.76367 4.49992 7.06328 4.49992 8.66645C4.49992 8.91958 4.27606 9.12478 3.99992 9.12478H1.33325C1.05711 9.12478 0.833252 8.91958 0.833252 8.66645V6.22201ZM1.83325 6.73348V8.20812H3.44194C3.25414 7.47931 2.62831 6.90564 1.83325 6.73348Z" fill="#414F5C"/>
<path fill-rule="evenodd" clip-rule="evenodd" d="M12.558 8.20812H14.1667V6.73348C13.3716 6.90564 12.7458 7.47931 12.558 8.20812ZM11.5 8.66645C11.5 7.06328 12.9178 5.76367 14.6667 5.76367C14.9428 5.76367 15.1667 5.96887 15.1667 6.22201V8.66645C15.1667 8.91958 14.9428 9.12478 14.6667 9.12478H12C11.7239 9.12478 11.5 8.91958 11.5 8.66645Z" fill="#414F5C"/>
<path fill-rule="evenodd" clip-rule="evenodd" d="M11.5 1.33333C11.5 1.0802 11.7239 0.875 12 0.875H14.6667C14.9428 0.875 15.1667 1.0802 15.1667 1.33333V3.77778C15.1667 4.03091 14.9428 4.23611 14.6667 4.23611C12.9178 4.23611 11.5 2.9365 11.5 1.33333ZM12.558 1.79167C12.7458 2.52048 13.3716 3.09414 14.1667 3.2663V1.79167H12.558Z" fill="#414F5C"/>
<path fill-rule="evenodd" clip-rule="evenodd" d="M5.83325 5.00016C5.83325 3.81631 6.72182 2.7085 7.99992 2.7085C9.27801 2.7085 10.1666 3.81631 10.1666 5.00016C10.1666 6.18402 9.27801 7.29183 7.99992 7.29183C6.72182 7.29183 5.83325 6.18402 5.83325 5.00016ZM7.99992 3.62516C7.43708 3.62516 6.83325 4.15898 6.83325 5.00016C6.83325 5.84134 7.43708 6.37516 7.99992 6.37516C8.56276 6.37516 9.16659 5.84134 9.16659 5.00016C9.16659 4.15898 8.56276 3.62516 7.99992 3.62516Z" fill="#414F5C"/>
</svg>
