<svg width="114" height="114" viewBox="0 0 114 114" fill="none" xmlns="http://www.w3.org/2000/svg">
<path fill-rule="evenodd" clip-rule="evenodd" d="M109.397 18.853C109.729 19.1839 109.992 19.5771 110.172 20.0099C110.351 20.4427 110.444 20.9067 110.444 21.3753C110.444 21.8439 110.351 22.3078 110.172 22.7407C109.992 23.1735 109.729 23.5666 109.397 23.8975L59.5222 73.7725C59.1913 74.1043 58.7982 74.3675 58.3654 74.5471C57.9326 74.7267 57.4686 74.8191 57 74.8191C56.5314 74.8191 56.0674 74.7267 55.6346 74.5471C55.2018 74.3675 54.8087 74.1043 54.4777 73.7725L33.1027 52.3975C32.7715 52.0663 32.5088 51.6731 32.3295 51.2403C32.1502 50.8075 32.058 50.3437 32.058 49.8753C32.058 49.4068 32.1502 48.943 32.3295 48.5102C32.5088 48.0775 32.7715 47.6842 33.1027 47.353C33.434 47.0218 33.8272 46.759 34.26 46.5798C34.6927 46.4005 35.1566 46.3083 35.625 46.3083C36.0934 46.3083 36.5572 46.4005 36.99 46.5798C37.4228 46.759 37.816 47.0218 38.1472 47.353L57 66.2129L104.353 18.853C104.684 18.5213 105.077 18.258 105.51 18.0784C105.942 17.8988 106.406 17.8064 106.875 17.8064C107.344 17.8064 107.808 17.8988 108.24 18.0784C108.673 18.258 109.066 18.5213 109.397 18.853Z" fill="#27AE60"/>
<path fill-rule="evenodd" clip-rule="evenodd" d="M56.9999 17.8124C49.2494 17.8124 41.6729 20.1107 35.2285 24.4167C28.7842 28.7227 23.7614 34.843 20.7954 42.0035C17.8294 49.1641 17.0534 57.0434 18.5654 64.645C20.0775 72.2467 23.8097 79.2292 29.2902 84.7097C34.7707 90.1902 41.7532 93.9224 49.3548 95.4345C56.9565 96.9465 64.8358 96.1705 71.9964 93.2045C79.1569 90.2384 85.2772 85.2157 89.5832 78.7713C93.8891 72.327 96.1875 64.7505 96.1875 56.9999C96.1875 56.0551 96.5628 55.149 97.2309 54.4809C97.899 53.8128 98.8051 53.4374 99.75 53.4374C100.695 53.4374 101.601 53.8128 102.269 54.4809C102.937 55.149 103.312 56.0551 103.312 56.9999C103.311 67.1946 99.946 77.1041 93.739 85.1914C87.5319 93.2787 78.8298 99.0919 68.9822 101.73C59.1346 104.367 48.6919 103.682 39.2735 99.7797C29.8551 95.8776 21.9874 88.9769 16.8907 80.1477C11.7939 71.3185 9.75278 61.0542 11.0839 50.9468C12.4151 40.8394 17.0441 31.4536 24.2531 24.2451C31.4621 17.0365 40.8482 12.4081 50.9557 11.0776C61.0632 9.74709 71.3273 11.7888 80.1562 16.8862C80.5819 17.1089 80.9582 17.4154 81.2624 17.7873C81.5666 18.1592 81.7924 18.5888 81.9263 19.0503C82.0602 19.5117 82.0993 19.9955 82.0414 20.4724C81.9835 20.9494 81.8296 21.4097 81.5892 21.8257C81.3487 22.2417 81.0266 22.6047 80.6423 22.893C80.2579 23.1812 79.8191 23.3888 79.3525 23.5031C78.8858 23.6174 78.4008 23.6361 77.9267 23.5581C77.4526 23.4802 76.9992 23.3071 76.5937 23.0493C70.6388 19.6057 63.8788 17.799 56.9999 17.8124Z" fill="#6F869A"/>
</svg>
