<svg width="40" height="26" viewBox="0 0 40 26" fill="none" xmlns="http://www.w3.org/2000/svg">
<defs>
<linearGradient id="paint0_linear_431_30255" x1="34.2793" y1="1.12988" x2="4.9231" y2="1.12697" gradientUnits="userSpaceOnUse">
<stop stop-color="#EBB100"/>
<stop offset="1" stop-color="#F88300"/>
</linearGradient>
</defs>
<path d="M18.1189 14.2678H19.4864C19.4864 14.9858 20.4232 15.5974 21.5377 15.5974C22.6523 15.5974 23.589 14.9858 23.589 14.2678C23.589 13.5366 22.8779 13.2706 21.3736 12.9183C19.924 12.566 18.1189 12.1272 18.1189 10.2792C18.1189 9.08922 19.124 8.07877 20.5121 7.73973V6.29053H22.5634V7.73973C23.9514 8.07877 24.9566 9.08922 24.9566 10.2792H23.589C23.589 9.56121 22.6523 8.94962 21.5377 8.94962C20.4232 8.94962 19.4864 9.56121 19.4864 10.2792C19.4864 11.0104 20.1975 11.2763 21.7018 11.6287C23.1514 11.981 24.9566 12.4197 24.9566 14.2678C24.9566 15.4577 23.9514 16.4682 22.5634 16.8072V18.2564H20.5121V16.8072C19.124 16.4682 18.1189 15.4577 18.1189 14.2678Z" fill="#333333"/>
<path d="M33.191 13.0871C33.191 16.7403 33.7483 21.2568 30.6985 23.4501C28.2353 25.2216 22.5525 24.2473 19.0672 24.2473C16.184 24.2473 10.5015 24.7057 8.26663 23.4501C4.45516 21.3087 4.9434 17.25 4.9434 13.0871C4.9434 6.48333 11.2668 1.12988 19.0672 1.12988C26.8675 1.12988 33.191 6.48333 33.191 13.0871Z" fill="url(#paint0_linear_431_30255)"/>
<path d="M13.0735 11.8695L14.6001 13.3505C13.8368 14.091 14.2323 15.7363 15.4765 16.9433C16.7207 18.1503 18.4167 18.534 19.18 17.7935C19.9574 17.0393 19.4463 15.9949 18.1416 14.0024C16.898 12.0691 15.3493 9.66165 17.3141 7.75553C18.5792 6.52821 20.7756 6.57456 22.6855 7.7281L24.2263 6.23338L26.5162 8.4549L24.9754 9.94963C26.1645 11.8025 26.2123 13.9333 24.9472 15.1606L23.4205 13.6796C24.1839 12.9391 23.7883 11.2938 22.5442 10.0868C21.3 8.87973 19.604 8.49604 18.8407 9.23654C18.0633 9.99076 18.5744 11.0352 19.8791 13.0277C21.1227 14.9609 22.6714 17.3684 20.7066 19.2745C19.4415 20.5019 17.2451 20.4555 15.3352 19.302L13.7944 20.7967L11.5045 18.5752L13.0452 17.0804C11.8562 15.2275 11.8084 13.0968 13.0735 11.8695Z" fill="#333333"/>
<path fill-rule="evenodd" clip-rule="evenodd" d="M10.1973 6.93403C15.0214 2.254 22.8429 2.254 27.667 6.93403C31.9334 11.0729 32.4267 17.4861 29.1469 22.1509H8.71744C5.43769 17.4861 5.93098 11.0729 10.1973 6.93403ZM4.64663 22.1509C1.76511 16.4062 2.78345 9.28419 7.70165 4.5129C13.9041 -1.50428 23.9602 -1.50428 30.1627 4.5129C35.0809 9.28419 36.0992 16.4062 33.2177 22.1509H40V25.5749H0V22.1509H4.64663Z" fill="#333333"/>
</svg>
