<svg width="32" height="32" viewBox="0 0 32 32" fill="none" xmlns="http://www.w3.org/2000/svg">
<path fill-rule="evenodd" clip-rule="evenodd" d="M16.0001 27.3332C22.2593 27.3332 27.3334 22.2591 27.3334 15.9998C27.3334 9.74061 22.2593 4.6665 16.0001 4.6665C9.74085 4.6665 4.66675 9.74061 4.66675 15.9998C4.66675 22.2591 9.74085 27.3332 16.0001 27.3332ZM16.0001 29.3332C23.3639 29.3332 29.3334 23.3636 29.3334 15.9998C29.3334 8.63604 23.3639 2.6665 16.0001 2.6665C8.63628 2.6665 2.66675 8.63604 2.66675 15.9998C2.66675 23.3636 8.63628 29.3332 16.0001 29.3332Z" fill="#E44160"/>
<path d="M16.9375 21.3568H12.0312V10.3691H16.8296C17.9526 10.3691 18.8484 10.6325 19.4628 11.1039C20.0761 11.5746 20.4116 12.2546 20.4116 13.0955C20.4116 14.2344 19.5003 15.256 18.3309 15.438L18.3044 15.4422V15.4689V15.5996V15.6281L18.3328 15.6307C19.944 15.7824 21.0098 16.8355 21.0098 18.2566C21.0098 19.2198 20.6288 19.9933 19.9315 20.5268C19.2332 21.0611 18.2148 21.3568 16.9375 21.3568ZM13.8656 11.7613H13.8344V11.7925V15.0167V15.048H13.8656H16.0793C16.9061 15.048 17.5397 14.9078 17.9675 14.6323C18.3975 14.3554 18.617 13.9434 18.617 13.4092C18.617 12.8902 18.4107 12.4764 18.0274 12.1934C17.6455 11.9113 17.0907 11.7613 16.3962 11.7613H13.8656ZM13.8344 19.9334V19.9647H13.8656H16.5624C17.4067 19.9647 18.0574 19.8071 18.4978 19.4983C18.9401 19.1883 19.1669 18.7283 19.1669 18.1338C19.1669 17.5456 18.9309 17.095 18.4708 16.793C18.0127 16.4924 17.3352 16.3408 16.4544 16.3408H13.8656H13.8344V16.372V19.9334Z" fill="#414F5C" stroke="#414F5C" stroke-width="0.0625"/>
<rect x="15.3904" y="9.71021" width="0.753419" height="12.3058" fill="#414F5C" stroke="#414F5C" stroke-width="0.753419"/>
</svg>
