<svg width="16" height="16" viewBox="0 0 16 16" fill="none" xmlns="http://www.w3.org/2000/svg">
<path d="M13.3333 5.3335H2.66667C2.29848 5.3335 2 5.63197 2 6.00016V7.3335C2 7.70169 2.29848 8.00016 2.66667 8.00016H13.3333C13.7015 8.00016 14 7.70169 14 7.3335V6.00016C14 5.63197 13.7015 5.3335 13.3333 5.3335Z" stroke="white" stroke-width="1.3" stroke-linecap="round" stroke-linejoin="round"/>
<path d="M8 5.3335V14.0002" stroke="white" stroke-width="1.3" stroke-linecap="round" stroke-linejoin="round"/>
<path d="M12.6666 8V12.6667C12.6666 13.0203 12.5261 13.3594 12.2761 13.6095C12.026 13.8595 11.6869 14 11.3333 14H4.66659C4.31296 14 3.97382 13.8595 3.72378 13.6095C3.47373 13.3594 3.33325 13.0203 3.33325 12.6667V8" stroke="white" stroke-width="1.3" stroke-linecap="round" stroke-linejoin="round"/>
<path d="M4.99992 5.33314C4.55789 5.33314 4.13397 5.15754 3.82141 4.84498C3.50885 4.53242 3.33325 4.1085 3.33325 3.66647C3.33325 3.22444 3.50885 2.80052 3.82141 2.48796C4.13397 2.1754 4.55789 1.9998 4.99992 1.9998C5.64304 1.9886 6.27327 2.30064 6.80841 2.89524C7.34355 3.48984 7.75877 4.33941 7.99992 5.33314C8.24107 4.33941 8.65629 3.48984 9.19143 2.89524C9.72657 2.30064 10.3568 1.9886 10.9999 1.9998C11.4419 1.9998 11.8659 2.1754 12.1784 2.48796C12.491 2.80052 12.6666 3.22444 12.6666 3.66647C12.6666 4.1085 12.491 4.53242 12.1784 4.84498C11.8659 5.15754 11.4419 5.33314 10.9999 5.33314" stroke="white" stroke-width="1.3" stroke-linecap="round" stroke-linejoin="round"/>
</svg>
