<svg width="24" height="24" viewBox="0 0 24 24" fill="none" xmlns="http://www.w3.org/2000/svg">
<g clip-path="url(#clip0_2676_43634)">
<path fill-rule="evenodd" clip-rule="evenodd" d="M12 4.05469C7.61193 4.05469 4.05469 7.61193 4.05469 12C4.05469 16.3881 7.61193 19.9453 12 19.9453C12.9865 19.9453 13.9294 19.7659 14.7989 19.4385C15.1866 19.2926 15.6191 19.4885 15.7651 19.8762C15.911 20.2638 15.7151 20.6964 15.3274 20.8423C14.2915 21.2323 13.1698 21.4453 12 21.4453C6.7835 21.4453 2.55469 17.2165 2.55469 12C2.55469 6.7835 6.7835 2.55469 12 2.55469C17.2165 2.55469 21.4453 6.7835 21.4453 12C21.4453 13.2495 21.2023 14.4441 20.7602 15.5378C20.605 15.9218 20.1679 16.1073 19.7838 15.9521C19.3998 15.7968 19.2143 15.3597 19.3695 14.9756C19.7406 14.0576 19.9453 13.0536 19.9453 12C19.9453 7.61193 16.3881 4.05469 12 4.05469Z" fill="#414F5C"/>
<path fill-rule="evenodd" clip-rule="evenodd" d="M19.148 23.4302C18.5267 23.3632 18.012 22.918 17.8561 22.3128L16.8931 18.5723C16.748 18.0086 16.942 17.4119 17.3909 17.0414C17.8398 16.6709 18.4625 16.5936 18.9884 16.8429L22.5414 18.5277C23.112 18.7983 23.452 19.3973 23.3919 20.0259C23.3317 20.6546 22.8842 21.1782 22.2727 21.3357L21.1461 21.6257L20.6483 22.6137C20.3671 23.1718 19.7694 23.4971 19.148 23.4302ZM19.3088 21.9388L19.8963 20.7728C19.9208 20.7242 19.9489 20.6776 19.9804 20.6335C20.0364 20.5552 20.1029 20.4846 20.1783 20.4239C20.2547 20.3623 20.3391 20.3118 20.429 20.2737C20.4776 20.253 20.5278 20.236 20.5792 20.2228L21.8987 19.8831L18.3457 18.1983L19.3088 21.9388Z" fill="#414F5C"/>
<path fill-rule="evenodd" clip-rule="evenodd" d="M11.1573 17.3121L11.1573 6.6875C11.1573 6.27329 11.4931 5.9375 11.9073 5.9375C12.3215 5.9375 12.6573 6.27329 12.6573 6.6875L12.6573 17.3121C12.6573 17.7263 12.3215 18.0621 11.9073 18.0621C11.4931 18.0621 11.1573 17.7263 11.1573 17.3121Z" fill="#D4364E"/>
<path fill-rule="evenodd" clip-rule="evenodd" d="M9.6843 7.17134C9.6844 7.17122 9.6842 7.17146 9.6843 7.17134L9.67374 7.1843C9.66371 7.19672 9.64739 7.21722 9.62567 7.24548C9.58221 7.30205 9.51731 7.38948 9.43802 7.50521C9.27918 7.73707 9.06427 8.08014 8.84873 8.51403C8.41583 9.38553 7.99286 10.598 7.99286 11.9998C7.99286 13.4016 8.41583 14.6141 8.84874 15.4856C9.06427 15.9195 9.27918 16.2625 9.43802 16.4944C9.51731 16.6101 9.58221 16.6976 9.62567 16.7541C9.64739 16.7824 9.66371 16.8029 9.67374 16.8153L9.68393 16.8278C9.68383 16.8277 9.68403 16.8279 9.68393 16.8278L9.68497 16.8291C9.68491 16.829 9.68503 16.8291 9.68497 16.8291C9.95111 17.1454 9.91128 17.6178 9.59541 17.8849C9.27908 18.1523 8.80586 18.1126 8.53845 17.7963L9.11122 17.3121C8.53845 17.7963 8.53863 17.7965 8.53845 17.7963L8.5368 17.7943L8.53447 17.7915L8.5278 17.7835L8.50675 17.7577C8.48941 17.7362 8.46558 17.7062 8.43621 17.668C8.37749 17.5916 8.29644 17.4821 8.20056 17.3422C8.00909 17.0627 7.7569 16.6593 7.50535 16.1529C7.00407 15.1438 6.49286 13.7001 6.49286 11.9998C6.49286 10.2995 7.00407 8.85584 7.50535 7.84672C7.7569 7.34031 8.00909 6.93694 8.20056 6.65745C8.29644 6.5175 8.37749 6.40803 8.43621 6.3316C8.46558 6.29338 8.48941 6.26336 8.50675 6.24189L8.5278 6.2161L8.53447 6.20808L8.5368 6.20529L8.53771 6.20421C8.53789 6.204 8.53845 6.20333 9.11106 6.68738L8.53845 6.20333C8.80586 5.887 9.27908 5.84734 9.59541 6.11475C9.91162 6.38205 9.95137 6.85501 9.6843 7.17134Z" fill="#D4364E"/>
<path fill-rule="evenodd" clip-rule="evenodd" d="M14.1303 7.17134C14.1302 7.17122 14.1304 7.17146 14.1303 7.17134L14.1408 7.1843C14.1509 7.19672 14.1672 7.21722 14.1889 7.24548C14.2324 7.30205 14.2973 7.38948 14.3766 7.50521C14.5354 7.73707 14.7503 8.08014 14.9658 8.51403C15.3987 9.38553 15.8217 10.598 15.8217 11.9998C15.8217 13.4016 15.3987 14.6141 14.9658 15.4856C14.7503 15.9195 14.5354 16.2625 14.3766 16.4944C14.2973 16.6101 14.2324 16.6976 14.1889 16.7541C14.1672 16.7824 14.1509 16.8029 14.1408 16.8153L14.1306 16.8278C14.1307 16.8277 14.1305 16.8279 14.1306 16.8278L14.1296 16.8291C14.1297 16.829 14.1295 16.8291 14.1296 16.8291C13.8635 17.1454 13.9033 17.6178 14.2192 17.8849C14.5355 18.1523 15.0087 18.1126 15.2761 17.7963L14.7034 17.3121C15.2761 17.7963 15.2759 17.7965 15.2761 17.7963L15.2778 17.7943L15.2801 17.7915L15.2868 17.7835L15.3078 17.7577C15.3252 17.7362 15.349 17.7062 15.3784 17.668C15.4371 17.5916 15.5181 17.4821 15.614 17.3422C15.8055 17.0627 16.0577 16.6593 16.3092 16.1529C16.8105 15.1438 17.3217 13.7001 17.3217 11.9998C17.3217 10.2995 16.8105 8.85584 16.3092 7.84672C16.0577 7.34031 15.8055 6.93694 15.614 6.65745C15.5181 6.5175 15.4371 6.40803 15.3784 6.3316C15.349 6.29338 15.3252 6.26336 15.3078 6.24189L15.2868 6.2161L15.2801 6.20808L15.2778 6.20529L15.2769 6.20421C15.2767 6.204 15.2761 6.20333 14.7035 6.68738L15.2761 6.20333C15.0087 5.887 14.5355 5.84734 14.2192 6.11475C13.903 6.38205 13.8632 6.85501 14.1303 7.17134Z" fill="#D4364E"/>
<path fill-rule="evenodd" clip-rule="evenodd" d="M18.3459 10.0266C18.3459 10.4408 18.0101 10.7766 17.5959 10.7766L6.02916 10.7766C5.61495 10.7766 5.27916 10.4408 5.27916 10.0266C5.27916 9.6124 5.61495 9.27661 6.02916 9.27661L17.5959 9.27661C18.0101 9.27661 18.3459 9.6124 18.3459 10.0266Z" fill="#D4364E"/>
<path fill-rule="evenodd" clip-rule="evenodd" d="M18.3459 14.188C18.3459 14.6022 18.0101 14.938 17.5959 14.938L6.02916 14.938C5.61495 14.938 5.27916 14.6022 5.27916 14.188C5.27916 13.7738 5.61495 13.438 6.02916 13.438L17.5959 13.438C18.0101 13.438 18.3459 13.7738 18.3459 14.188Z" fill="#D4364E"/>
</g>
<defs>
<clipPath id="clip0_2676_43634">
<rect width="24" height="24" fill="white"/>
</clipPath>
</defs>
</svg>
