<svg width="94" height="39" viewBox="0 0 94 39" fill="none" xmlns="http://www.w3.org/2000/svg">
<defs>
<linearGradient id="paint0_linear_464_9748" x1="13.6919" y1="2.87751" x2="14.0471" y2="2.87751" gradientUnits="userSpaceOnUse">
<stop stop-color="#FFBC3B"/>
<stop offset="0.3" stop-color="#FFCB4D"/>
<stop offset="0.7" stop-color="#FFD559"/>
<stop offset="1" stop-color="#FFD85D"/>
</linearGradient>
<linearGradient id="paint1_linear_464_9748" x1="7.4645" y1="7.40838" x2="7.5179" y2="7.05625" gradientUnits="userSpaceOnUse">
<stop stop-color="#FFBC3B"/>
<stop offset="0.3" stop-color="#FFCB4D"/>
<stop offset="0.7" stop-color="#FFD559"/>
<stop offset="1" stop-color="#FFD85D"/>
</linearGradient>
<linearGradient id="paint2_linear_464_9748" x1="19.4177" y1="7.13632" x2="19.5369" y2="7.47187" gradientUnits="userSpaceOnUse">
<stop stop-color="#FFBC3B"/>
<stop offset="0.3" stop-color="#FFCB4D"/>
<stop offset="0.7" stop-color="#FFD559"/>
<stop offset="1" stop-color="#FFD85D"/>
</linearGradient>
<linearGradient id="paint3_linear_464_9748" x1="8.42206" y1="3.56222" x2="9.19668" y2="2.53702" gradientUnits="userSpaceOnUse">
<stop stop-color="#FFBC3B"/>
<stop offset="0.3" stop-color="#FFCB4D"/>
<stop offset="0.7" stop-color="#FFD559"/>
<stop offset="1" stop-color="#FFD85D"/>
</linearGradient>
<linearGradient id="paint4_linear_464_9748" x1="18.3826" y1="3.17533" x2="19.409" y2="3.94675" gradientUnits="userSpaceOnUse">
<stop stop-color="#FFBC3B"/>
<stop offset="0.3" stop-color="#FFCB4D"/>
<stop offset="0.7" stop-color="#FFD559"/>
<stop offset="1" stop-color="#FFD85D"/>
</linearGradient>
<linearGradient id="paint5_linear_464_9748" x1="19.9413" y1="11.7757" x2="19.3806" y2="12.9325" gradientUnits="userSpaceOnUse">
<stop stop-color="#FFBC3B"/>
<stop offset="0.3" stop-color="#FFCB4D"/>
<stop offset="0.7" stop-color="#FFD559"/>
<stop offset="1" stop-color="#FFD85D"/>
</linearGradient>
<linearGradient id="paint6_linear_464_9748" x1="7.63952" y1="12.7085" x2="6.75729" y2="11.7748" gradientUnits="userSpaceOnUse">
<stop stop-color="#FFBC3B"/>
<stop offset="0.3" stop-color="#FFCB4D"/>
<stop offset="0.7" stop-color="#FFD559"/>
<stop offset="1" stop-color="#FFD85D"/>
</linearGradient>
<linearGradient id="paint7_linear_464_9748" x1="7.97769" y1="10.8272" x2="15.7388" y2="3.06607" gradientUnits="userSpaceOnUse">
<stop stop-color="#FFBC3B"/>
<stop offset="0.3" stop-color="#FFCB4D"/>
<stop offset="0.7" stop-color="#FFD559"/>
<stop offset="1" stop-color="#FFD85D"/>
</linearGradient>
<linearGradient id="paint8_linear_464_9748" x1="19.9244" y1="35.2249" x2="16.9232" y2="26.5072" gradientUnits="userSpaceOnUse">
<stop stop-color="#D81275"/>
<stop offset="0.3" stop-color="#D91D53"/>
<stop offset="0.6" stop-color="#DA253B"/>
<stop offset="0.8" stop-color="#DA2A2C"/>
<stop offset="1" stop-color="#DB2C27"/>
</linearGradient>
<linearGradient id="paint9_linear_464_9748" x1="19.9244" y1="35.2249" x2="16.9232" y2="26.5072" gradientUnits="userSpaceOnUse">
<stop stop-color="#D81275"/>
<stop offset="0.3" stop-color="#D91D53"/>
<stop offset="0.6" stop-color="#DA253B"/>
<stop offset="0.8" stop-color="#DA2A2C"/>
<stop offset="1" stop-color="#DB2C27"/>
</linearGradient>
<linearGradient id="paint10_linear_464_9748" x1="19.9244" y1="35.2249" x2="16.9232" y2="26.5072" gradientUnits="userSpaceOnUse">
<stop stop-color="#D81275"/>
<stop offset="0.3" stop-color="#D91D53"/>
<stop offset="0.6" stop-color="#DA253B"/>
<stop offset="0.8" stop-color="#DA2A2C"/>
<stop offset="1" stop-color="#DB2C27"/>
</linearGradient>
</defs>
<path d="M13.6919 3.78774V1.96729L14.0471 2.32346L13.6919 3.78774Z" fill="url(#paint0_linear_464_9748)"/>
<path d="M8.48191 7.4088L6.68604 7.15156L7.10048 6.83496L8.48191 7.4088Z" fill="url(#paint1_linear_464_9748)"/>
<path d="M18.5073 7.42859L20.2243 6.83496L20.0072 7.29007L18.5073 7.42859Z" fill="url(#paint2_linear_464_9748)"/>
<path d="M10.633 5.17299L6.33081 1.92783L7.21887 0.978027L10.633 5.17299Z" fill="url(#paint3_linear_464_9748)"/>
<path d="M16.7507 5.33146L19.6517 1.49268L20.9345 1.90821L16.7507 5.33146Z" fill="url(#paint4_linear_464_9748)"/>
<path d="M17.2837 10.397L23.1646 13.2464L21.4477 13.84L17.2837 10.397Z" fill="url(#paint5_linear_464_9748)"/>
<path d="M9.56743 10.6543L6.27172 13.7412L4.85083 13.3256L9.56743 10.6543Z" fill="url(#paint6_linear_464_9748)"/>
<mask id="mask0_464_9748" style="mask-type:alpha" maskUnits="userSpaceOnUse" x="9" y="4" width="10" height="9">
<path d="M12.9187 4.8957C13.3044 4.23343 14.2612 4.23343 14.6469 4.8957L15.3319 6.07177C15.4732 6.31437 15.71 6.4864 15.9844 6.54582L17.3146 6.83386C18.0636 6.99607 18.3593 7.90599 17.8486 8.4775L16.9418 9.4924C16.7547 9.70176 16.6643 9.9801 16.6926 10.2594L16.8297 11.6135C16.9069 12.376 16.1328 12.9384 15.4315 12.6293L14.1861 12.0805C13.9291 11.9673 13.6365 11.9673 13.3796 12.0805L12.1341 12.6293C11.4328 12.9384 10.6587 12.376 10.7359 11.6135L10.873 10.2594C10.9013 9.9801 10.8109 9.70176 10.6238 9.4924L9.71699 8.4775C9.20633 7.90599 9.50199 6.99607 10.251 6.83386L11.5812 6.54582C11.8556 6.4864 12.0924 6.31437 12.2337 6.07177L12.9187 4.8957Z" fill="#D9D9D9"/>
</mask>
<g mask="url(#mask0_464_9748)">
<path d="M13.798 14.3679C16.8289 14.3679 19.2859 11.9109 19.2859 8.88002C19.2859 5.84912 16.8289 3.39209 13.798 3.39209C10.7671 3.39209 8.31006 5.84912 8.31006 8.88002C8.31006 11.9109 10.7671 14.3679 13.798 14.3679Z" fill="#FFBB39"/>
<path d="M9.91814 5.00042C7.76719 7.15136 7.76719 10.609 9.91814 12.7599L17.6776 5.00042C15.5267 2.84947 12.0691 2.84947 9.91814 5.00042Z" fill="url(#paint7_linear_464_9748)"/>
</g>
<path d="M14.2914 26.61C16.6362 26.61 18.5369 24.7041 18.5369 22.3531C18.5369 20.0021 16.6362 18.0962 14.2914 18.0962C11.9467 18.0962 10.0459 20.0021 10.0459 22.3531C10.0459 24.7041 11.9467 26.61 14.2914 26.61Z" fill="#FCFCFC"/>
<path fill-rule="evenodd" clip-rule="evenodd" d="M23.9982 16.937C23.9982 15.6579 25.0346 14.6187 26.3103 14.6187H26.39C27.6657 14.6187 28.7021 15.6579 28.7021 16.937V20.934C28.7021 23.692 27.6059 26.53 25.7323 28.7084C24.3707 30.2637 23.6993 30.8016 22.2689 31.7209V37.8732H19.159C17.8323 37.9491 16.0568 38.0216 14.1119 38.0216C12.167 38.0216 10.4999 37.9491 9.28677 37.8732H6.43329V31.7976C4.99853 30.9917 4.31455 30.2814 2.96988 28.7084C1.07634 26.51 0 23.692 0 20.934V16.937C0 15.6579 1.03647 14.6187 2.31212 14.6187C3.58777 14.6187 4.62425 15.6579 4.62425 16.937V20.934C4.62425 22.5529 5.30193 24.3316 6.45799 25.6706C7.11574 26.45 8.53091 27.7491 10.4643 27.7491H18.1581C18.9753 27.7491 20.6097 27.4693 22.1644 25.6706C23.3205 24.3316 23.9982 22.5728 23.9982 20.934V16.937Z" fill="#FCFCFC"/>
<path d="M10.0379 31.9933V35.6299H8.83701V31.9933H7.71729V31.0969H11.1644V31.9933H10.0379Z" fill="url(#paint8_linear_464_9748)"/>
<path d="M16.1968 35.6299L16.2171 32.149H16.1968L15.0398 35.6299H13.9336L12.8274 32.149H12.8207L12.8376 35.6299H11.6536V31.0969H13.5581L14.5189 34.1076H14.5392L15.5405 31.0969H17.3672V35.6299H16.1968Z" fill="url(#paint9_linear_464_9748)"/>
<path d="M21.3171 34.2159C21.3171 34.5113 21.2596 34.7549 21.1445 34.9466C21.0318 35.136 20.8818 35.2871 20.6946 35.3999C20.5074 35.5126 20.2943 35.5916 20.0553 35.6367C19.8185 35.6818 19.5749 35.7043 19.3246 35.7043C19.1126 35.7043 18.8848 35.6886 18.6412 35.657C18.3977 35.6232 18.1744 35.5758 17.9714 35.5149L18.0763 34.5136C18.2364 34.5948 18.4213 34.6658 18.6311 34.7267C18.8431 34.7853 19.0742 34.8146 19.3246 34.8146C19.4215 34.8146 19.514 34.809 19.602 34.7977C19.6922 34.7865 19.7711 34.765 19.8388 34.7335C19.9087 34.6996 19.9639 34.6534 20.0045 34.5948C20.0474 34.5361 20.0688 34.4617 20.0688 34.3715C20.0688 34.2655 20.0372 34.1787 19.9741 34.111C19.9132 34.0434 19.8331 33.9858 19.7339 33.9385C19.6347 33.8911 19.5208 33.8494 19.3922 33.8133C19.2637 33.775 19.1329 33.7344 18.9998 33.6915C18.8667 33.6464 18.7359 33.5934 18.6074 33.5325C18.4788 33.4717 18.3638 33.3927 18.2623 33.2957C18.1631 33.1965 18.0831 33.0759 18.0222 32.9338C17.9613 32.7894 17.9308 32.6147 17.9308 32.4094C17.9308 32.1365 17.9906 31.911 18.1101 31.7329C18.2319 31.5524 18.3875 31.4104 18.5769 31.3066C18.7664 31.2006 18.9773 31.1273 19.2095 31.0867C19.4441 31.0439 19.6753 31.0225 19.903 31.0225C20.1195 31.0225 20.3304 31.0371 20.5356 31.0664C20.7409 31.0958 20.9179 31.1352 21.0667 31.1848L20.9923 32.132C20.8367 32.0599 20.6732 32.0057 20.5018 31.9697C20.3304 31.9336 20.1601 31.9155 19.991 31.9155C19.9143 31.9155 19.8286 31.92 19.7339 31.9291C19.6392 31.9358 19.5501 31.9539 19.4666 31.9832C19.3855 32.0103 19.3167 32.0531 19.2603 32.1117C19.2039 32.1681 19.1757 32.2448 19.1757 32.3418C19.1757 32.432 19.2062 32.5064 19.2671 32.565C19.3279 32.6237 19.408 32.6733 19.5072 32.7139C19.6087 32.7545 19.7237 32.7917 19.8523 32.8255C19.9808 32.8571 20.1116 32.8954 20.2447 32.9405C20.38 32.9834 20.5119 33.0353 20.6405 33.0962C20.769 33.157 20.8829 33.2371 20.9822 33.3363C21.0836 33.4356 21.1648 33.5562 21.2257 33.6983C21.2866 33.8404 21.3171 34.0129 21.3171 34.2159Z" fill="url(#paint10_linear_464_9748)"/>
<path d="M44.6256 11.2629C44.6256 11.9215 44.515 12.48 44.2939 12.9381C44.0786 13.3963 43.7818 13.7686 43.4035 14.055C43.0311 14.3414 42.5917 14.5475 42.0855 14.6735C41.5792 14.7995 41.0438 14.8597 40.4793 14.854L36.2021 14.8024V5.03436H38.6375V13.0155H39.6064C39.9265 13.0155 40.2349 12.9868 40.5317 12.9296C40.8343 12.8666 41.0991 12.7577 41.326 12.6031C41.5588 12.4485 41.745 12.2423 41.8847 11.9845C42.0244 11.7268 42.0942 11.3975 42.0942 10.9966C42.0942 10.2749 41.8818 9.73081 41.457 9.36426C41.0322 8.99198 40.4561 8.7858 39.7286 8.7457V7.15636C40.0254 7.15063 40.3164 7.10767 40.6015 7.02749C40.8925 6.94158 41.1456 6.81271 41.361 6.64089C41.5821 6.46907 41.7508 6.25143 41.8672 5.98797C41.9894 5.71879 42.0389 5.40092 42.0156 5.03436H44.5296C44.5587 5.36082 44.5354 5.67583 44.4597 5.97938C44.3841 6.2772 44.2531 6.55498 44.0669 6.81271C43.8865 7.06472 43.6538 7.28809 43.3686 7.48282C43.0893 7.67755 42.7692 7.83219 42.4084 7.94674V7.97251C42.6819 8.05842 42.9525 8.19588 43.2202 8.38488C43.4879 8.57388 43.7236 8.80871 43.9273 9.08935C44.1309 9.36999 44.2968 9.69359 44.4248 10.0601C44.5587 10.421 44.6256 10.8219 44.6256 11.2629Z" fill="white"/>
<path d="M41.8585 2.92096V0H44.2939V2.92096H41.8585Z" fill="white"/>
<path d="M54.9519 9.9055C54.9519 10.7131 54.8704 11.4318 54.7075 12.0619C54.5504 12.6861 54.2914 13.2188 53.9306 13.6598C53.5757 14.0951 53.1159 14.4273 52.5515 14.6564C51.9928 14.8797 51.309 14.9914 50.5002 14.9914C49.8251 14.9914 49.2257 14.9026 48.702 14.7251C48.1841 14.5475 47.7447 14.3041 47.3839 13.9948C47.0289 13.6798 46.7584 13.319 46.5721 12.9124C46.3859 12.5 46.2899 12.0647 46.2841 11.6065H48.8155C48.8329 11.8013 48.8824 11.9874 48.9639 12.1649C49.0453 12.3425 49.1559 12.4971 49.2956 12.6289C49.441 12.7549 49.6098 12.858 49.8018 12.9381C49.9939 13.0126 50.2121 13.0498 50.4565 13.0498C50.6951 13.0498 50.9308 13.0126 51.1636 12.9381C51.3963 12.858 51.6029 12.709 51.7833 12.4914C51.9637 12.268 52.1092 11.953 52.2198 11.5464C52.3361 11.134 52.3943 10.5871 52.3943 9.9055C52.3943 9.24112 52.3361 8.70561 52.2198 8.29897C52.1092 7.8866 51.9637 7.56873 51.7833 7.34536C51.6029 7.12199 51.3963 6.97308 51.1636 6.89863C50.9308 6.82417 50.6951 6.78694 50.4565 6.78694C50.2121 6.78694 49.9939 6.82417 49.8018 6.89863C49.6098 6.97308 49.441 7.07617 49.2956 7.2079C49.1559 7.33963 49.0453 7.49427 48.9639 7.67182C48.8824 7.84364 48.8329 8.02978 48.8155 8.23024H46.2841C46.2899 7.76632 46.3859 7.32818 46.5721 6.91581C46.7584 6.50344 47.0289 6.14261 47.3839 5.83333C47.7447 5.51833 48.1841 5.27205 48.702 5.0945C49.2257 4.91695 49.8251 4.82818 50.5002 4.82818C51.309 4.82818 51.9928 4.94273 52.5515 5.17182C53.1159 5.40092 53.5757 5.7331 53.9306 6.16839C54.2914 6.60367 54.5504 7.13917 54.7075 7.77491C54.8704 8.40493 54.9519 9.11512 54.9519 9.9055Z" fill="white"/>
<path d="M60.1195 14.854C59.4968 14.8597 58.9614 14.8024 58.5133 14.6821C58.0652 14.5561 57.6957 14.3786 57.4048 14.1495C57.1138 13.9147 56.8956 13.6283 56.7501 13.2904C56.6104 12.9525 56.5406 12.5687 56.5406 12.1392C56.5406 11.7612 56.6017 11.4233 56.7239 11.1254C56.8519 10.8276 57.0119 10.5699 57.204 10.3522C57.4018 10.1289 57.6201 9.94845 57.8587 9.811C58.0972 9.67354 58.33 9.57331 58.557 9.51031V9.48454C58.3649 9.44444 58.1642 9.36999 57.9547 9.26117C57.751 9.15235 57.5619 9.00916 57.3873 8.83162C57.2185 8.65407 57.0789 8.44215 56.9683 8.19588C56.8636 7.9496 56.8112 7.66609 56.8112 7.34536C56.8112 7.01317 56.8781 6.70389 57.0119 6.41753C57.1458 6.13116 57.3349 5.88202 57.5793 5.6701C57.8237 5.45819 58.1263 5.29496 58.4871 5.18041C58.8479 5.06014 59.2582 5.00286 59.7179 5.00859L61.3066 5.03436V6.8299C60.7247 6.80699 60.2475 6.86999 59.875 7.0189C59.5026 7.16781 59.3164 7.41695 59.3164 7.76632C59.3164 7.97251 59.3775 8.1386 59.4997 8.2646C59.6219 8.39061 59.7761 8.48797 59.9623 8.5567C60.1544 8.62543 60.3668 8.66552 60.5995 8.67698C60.8381 8.68843 61.0738 8.68557 61.3066 8.66838V10.3522C61.0273 10.3293 60.7567 10.3436 60.4948 10.3952C60.2387 10.441 60.006 10.5212 59.7965 10.6357C59.5928 10.7503 59.4299 10.8963 59.3077 11.0739C59.1855 11.2514 59.1244 11.4605 59.1244 11.701C59.1244 12.0103 59.1855 12.2566 59.3077 12.4399C59.4357 12.6174 59.6015 12.7491 59.8052 12.8351C60.0147 12.921 60.2475 12.9754 60.5035 12.9983C60.7654 13.0155 61.0244 13.0212 61.2804 13.0155L62.9651 12.9639V5.03436H65.4092V14.8024L60.1195 14.854Z" fill="white"/>
<path d="M75.4911 11.9759C75.4911 12.4112 75.4067 12.815 75.238 13.1873C75.0692 13.5538 74.8161 13.8746 74.4786 14.1495C74.1469 14.4187 73.7279 14.6277 73.2216 14.7766C72.7153 14.9255 72.1217 15 71.4409 15C70.7717 15 70.1868 14.9255 69.6864 14.7766C69.1859 14.6277 68.7698 14.4187 68.4381 14.1495C68.1064 13.8746 67.8562 13.5538 67.6874 13.1873C67.5245 12.815 67.443 12.4112 67.443 11.9759V9.28694C67.443 9.03494 67.475 8.82875 67.5391 8.66838C67.6031 8.50229 67.6845 8.36483 67.7835 8.25601C67.8882 8.14719 67.9988 8.05842 68.1152 7.98969C68.2316 7.91523 68.3392 7.84651 68.4381 7.7835C68.5429 7.7205 68.6273 7.65178 68.6913 7.57732C68.7553 7.50286 68.7873 7.4055 68.7873 7.28522C68.7873 7.03895 68.6942 6.86999 68.508 6.77835C68.3218 6.68098 68.0599 6.6323 67.7224 6.6323H67.443V5.04296H69.2587C69.4623 5.04296 69.6776 5.06873 69.9046 5.12028C70.1315 5.17182 70.341 5.25487 70.5331 5.36942C70.7309 5.48396 70.8939 5.63287 71.0219 5.81615C71.1557 5.99943 71.2314 6.2228 71.2489 6.48625C71.2721 6.80126 71.2547 7.06472 71.1965 7.27663C71.1441 7.48854 71.0655 7.66896 70.9608 7.81787C70.8561 7.96105 70.7426 8.08706 70.6204 8.19588C70.4982 8.3047 70.3789 8.41352 70.2625 8.52234C70.1519 8.62543 70.0588 8.7457 69.9832 8.88316C69.9133 9.02062 69.8784 9.18671 69.8784 9.38144V11.6667C69.8784 11.9588 69.9162 12.205 69.9919 12.4055C70.0734 12.6002 70.1839 12.7606 70.3236 12.8866C70.4632 13.0126 70.6262 13.1014 70.8124 13.1529C71.0044 13.2045 71.2139 13.2302 71.4409 13.2302C71.6678 13.2302 71.8802 13.2045 72.0781 13.1529C72.276 13.1014 72.4476 13.0126 72.5931 12.8866C72.7386 12.7606 72.8521 12.6002 72.9335 12.4055C73.015 12.205 73.0557 11.9588 73.0557 11.6667V5.04296H75.4911V11.9759Z" fill="white"/>
<path d="M80.1087 14.8024V9.27835C80.1087 8.98625 80.0651 8.71134 79.9778 8.45361C79.8963 8.19015 79.7712 7.96678 79.6025 7.7835C79.4337 7.5945 79.2184 7.44845 78.9565 7.34536C78.7005 7.23654 78.3979 7.18213 78.0487 7.18213H76.8266V5.03436H78.5026C79.1951 5.03436 79.7945 5.13746 80.3008 5.34364C80.8129 5.54983 81.2348 5.83333 81.5665 6.19416C81.8982 6.55498 82.1455 6.98167 82.3084 7.47423C82.4714 7.96105 82.5528 8.48225 82.5528 9.0378V14.8024H80.1087Z" fill="white"/>
<path d="M87.9124 14.854C87.2897 14.8597 86.7544 14.8024 86.3063 14.6821C85.8582 14.5561 85.4887 14.3786 85.1977 14.1495C84.9067 13.9147 84.6885 13.6283 84.543 13.2904C84.4034 12.9525 84.3335 12.5687 84.3335 12.1392C84.3335 11.7612 84.3946 11.4233 84.5168 11.1254C84.6449 10.8276 84.8049 10.5699 84.9969 10.3522C85.1948 10.1289 85.413 9.94845 85.6516 9.811C85.8902 9.67354 86.123 9.57331 86.3499 9.51031V9.48454C86.1579 9.44444 85.9571 9.36999 85.7476 9.26117C85.544 9.15235 85.3548 9.00916 85.1802 8.83162C85.0115 8.65407 84.8718 8.44215 84.7613 8.19588C84.6565 7.9496 84.6041 7.66609 84.6041 7.34536C84.6041 7.01317 84.6711 6.70389 84.8049 6.41753C84.9387 6.13116 85.1279 5.88202 85.3723 5.6701C85.6167 5.45819 85.9193 5.29496 86.2801 5.18041C86.6409 5.06014 87.0512 5.00286 87.5109 5.00859L89.0995 5.03436V6.8299C88.5176 6.80699 88.0404 6.86999 87.668 7.0189C87.2956 7.16781 87.1093 7.41695 87.1093 7.76632C87.1093 7.97251 87.1704 8.1386 87.2927 8.2646C87.4149 8.39061 87.5691 8.48797 87.7553 8.5567C87.9473 8.62543 88.1597 8.66552 88.3925 8.67698C88.6311 8.68843 88.8668 8.68557 89.0995 8.66838V10.3522C88.8202 10.3293 88.5496 10.3436 88.2878 10.3952C88.0317 10.441 87.7989 10.5212 87.5894 10.6357C87.3858 10.7503 87.2228 10.8963 87.1006 11.0739C86.9784 11.2514 86.9173 11.4605 86.9173 11.701C86.9173 12.0103 86.9784 12.2566 87.1006 12.4399C87.2286 12.6174 87.3945 12.7491 87.5982 12.8351C87.8077 12.921 88.0404 12.9754 88.2965 12.9983C88.5583 13.0155 88.8173 13.0212 89.0734 13.0155L90.758 12.9639V5.03436H93.2021V14.8024L87.9124 14.854Z" fill="white"/>
<path fill-rule="evenodd" clip-rule="evenodd" d="M43.0217 19H38.0591V22.9119H35.7021V27.2291H38.0591V32.2969C38.0591 36.2793 41.4554 38.8132 45.6385 38.8132H48.5783V34.6793H45.6274C44.9383 34.6793 44.2774 34.4194 43.7902 33.9567C43.3029 33.4941 43.0292 32.8666 43.0292 32.2123V27.2291H46.2955C46.9132 27.2098 47.4985 26.962 47.9263 26.5386C48.3542 26.1152 48.5909 25.5498 48.5857 24.963V22.9119H43.018L43.0217 19ZM71.5726 32.3921C71.5726 33.0463 71.2989 33.6738 70.8116 34.1365C70.3244 34.5991 69.6635 34.859 68.9744 34.859C68.2853 34.859 67.6244 34.5991 67.1372 34.1365C66.6499 33.6738 66.3762 33.0463 66.3762 32.3921V25.185C66.3747 24.8851 66.311 24.5884 66.1888 24.3119C66.0666 24.0353 65.8882 23.7844 65.6638 23.5733C65.4394 23.3622 65.1735 23.1952 64.8811 23.0817C64.5887 22.9682 64.2757 22.9105 63.9598 22.9119H61.3616V31.7789C61.3616 35.7648 63.648 39 68.9484 39C74.2488 39 76.5538 35.7648 76.5538 31.7789V22.9119H71.5726V32.3921ZM93.7022 31.3348C93.665 26.4009 90.8552 22.5242 85.6142 22.5242C81.123 22.5242 77.4892 25.9744 77.4892 30.7251C77.4892 35.8529 80.7926 38.8943 85.6551 38.9859C87.1547 38.9867 88.6269 38.6038 89.9169 37.8776C91.2068 37.1514 92.267 36.1087 92.9858 34.859L88.4389 33.7207C88.1172 34.1444 87.6922 34.4878 87.2003 34.7216C86.7084 34.9555 86.1642 35.0727 85.6142 35.0634C83.8474 35.0634 82.3998 33.8476 82.3553 32.3815H93.7022C93.7022 32.1524 93.7022 31.5991 93.7022 31.3559V31.3348ZM82.3553 29.1392C82.3998 27.6767 83.84 26.4819 85.6142 26.4819C87.3884 26.4819 88.862 27.6626 88.888 29.1392H82.3553ZM57.312 22.9119H56.6402C55.7331 22.9114 54.8348 23.0808 53.9968 23.4103C53.1587 23.7397 52.3973 24.2229 51.756 24.832C51.1148 25.4412 50.6064 26.1644 50.2598 26.9603C49.9132 27.7563 49.7353 28.6092 49.7363 29.4705V38.8132H54.7324V29.7031C54.7323 29.0518 55.0035 28.427 55.4868 27.9649C55.97 27.5027 56.6262 27.2408 57.312 27.2361H60.2258V22.9119H57.312Z" fill="white"/>
</svg>
