<svg width="32" height="32" viewBox="0 0 32 32" fill="none" xmlns="http://www.w3.org/2000/svg">
<path fill-rule="evenodd" clip-rule="evenodd" d="M26.3296 18.5137C26.8819 18.5137 27.3296 18.9614 27.3296 19.5137V21.2447C27.3296 21.797 26.8819 22.2447 26.3296 22.2447C25.7773 22.2447 25.3296 21.797 25.3296 21.2447V19.5137C25.3296 18.9614 25.7773 18.5137 26.3296 18.5137ZM22.9006 18.5137C23.4529 18.5137 23.9006 18.9614 23.9006 19.5137V23.1102C23.9006 23.6625 23.4529 24.1102 22.9006 24.1102C22.3484 24.1102 21.9006 23.6625 21.9006 23.1102V19.5137C21.9006 18.9614 22.3484 18.5137 22.9006 18.5137ZM19.4717 18.5137C20.024 18.5137 20.4717 18.9614 20.4717 19.5137V24.9757C20.4717 25.528 20.024 25.9757 19.4717 25.9757C18.9194 25.9757 18.4717 25.528 18.4717 24.9757V19.5137C18.4717 18.9614 18.9194 18.5137 19.4717 18.5137ZM16.0427 18.5137C16.595 18.5137 17.0427 18.9614 17.0427 19.5137V26.8412C17.0427 27.3935 16.595 27.8412 16.0427 27.8412C15.4904 27.8412 15.0427 27.3935 15.0427 26.8412V19.5137C15.0427 18.9614 15.4904 18.5137 16.0427 18.5137ZM29.7586 18.5137C30.3108 18.5137 30.7586 18.9614 30.7586 19.5137V19.5348C30.7586 20.0871 30.3108 20.5348 29.7586 20.5348C29.2063 20.5348 28.7586 20.0871 28.7586 19.5348V19.5137C28.7586 18.9614 29.2063 18.5137 29.7586 18.5137Z" fill="#E44160"/>
<path fill-rule="evenodd" clip-rule="evenodd" d="M15.9573 4.1582C16.5096 4.1582 16.9573 4.60592 16.9573 5.1582V12.4857C16.9573 13.038 16.5096 13.4857 15.9573 13.4857C15.405 13.4857 14.9573 13.038 14.9573 12.4857V5.1582C14.9573 4.60592 15.405 4.1582 15.9573 4.1582ZM12.5283 6.02372C13.0806 6.02372 13.5283 6.47143 13.5283 7.02372V12.4857C13.5283 13.038 13.0806 13.4857 12.5283 13.4857C11.976 13.4857 11.5283 13.038 11.5283 12.4857V7.02372C11.5283 6.47143 11.976 6.02372 12.5283 6.02372ZM9.09937 7.88923C9.65165 7.88923 10.0994 8.33695 10.0994 8.88923V12.4858C10.0994 13.038 9.65165 13.4858 9.09937 13.4858C8.54708 13.4858 8.09937 13.038 8.09937 12.4858V8.88923C8.09937 8.33695 8.54708 7.88923 9.09937 7.88923ZM5.67041 9.75474C6.2227 9.75474 6.67041 10.2025 6.67041 10.7547V12.4858C6.67041 13.038 6.2227 13.4858 5.67041 13.4858C5.11813 13.4858 4.67041 13.038 4.67041 12.4858V10.7547C4.67041 10.2025 5.11813 9.75474 5.67041 9.75474ZM2.24146 11.4646C2.79374 11.4646 3.24145 11.9123 3.24145 12.4646V12.4857C3.24145 13.038 2.79374 13.4857 2.24146 13.4857C1.68917 13.4857 1.24146 13.038 1.24146 12.4857V12.4646C1.24146 11.9123 1.68917 11.4646 2.24146 11.4646Z" fill="#414F5C"/>
<path fill-rule="evenodd" clip-rule="evenodd" d="M25.1922 7.00963C24.1925 6.21111 22.7347 6.37424 21.9362 7.37399C21.5915 7.80552 20.9623 7.87594 20.5307 7.53126C20.0992 7.18659 20.0288 6.55735 20.3735 6.12582C21.8613 4.26301 24.5776 3.95906 26.4404 5.44691C28.2879 6.92255 28.6021 9.6065 27.1556 11.4678L28.32 11.3311C28.8685 11.2667 29.3654 11.6592 29.4298 12.2077C29.4942 12.7562 29.1017 13.2531 28.5532 13.3174L25.0636 13.7271C24.8892 13.7475 24.7199 13.7218 24.5681 13.6595C24.2016 13.5461 23.9177 13.2259 23.87 12.8204L23.4604 9.33081C23.396 8.78229 23.7885 8.28543 24.337 8.22105C24.8855 8.15666 25.3824 8.54912 25.4468 9.09764L25.5803 10.2354C26.3517 9.23671 26.1819 7.80012 25.1922 7.00963Z" fill="url(#paint0_linear_621_10961)"/>
<path fill-rule="evenodd" clip-rule="evenodd" d="M3.44674 18.6822C2.89823 18.7465 2.50576 19.2434 2.57015 19.7919C2.63453 20.3404 3.13139 20.7329 3.67991 20.6685L4.84446 20.5318C3.39787 22.3931 3.71199 25.0771 5.55955 26.5528C7.42236 28.0407 10.1386 27.7367 11.6265 25.8739C11.9711 25.4424 11.9007 24.8131 11.4692 24.4685C11.0377 24.1238 10.4084 24.1942 10.0638 24.6257C9.26524 25.6255 7.80746 25.7886 6.80772 24.9901C5.81801 24.1996 5.6482 22.763 6.41959 21.7643L6.55315 22.9021C6.61753 23.4506 7.11439 23.8431 7.66291 23.7787C8.21143 23.7143 8.6039 23.2174 8.53951 22.6689L8.12989 19.1794C8.08233 18.7742 7.79888 18.4543 7.43295 18.3406C7.28089 18.2779 7.11122 18.252 6.9363 18.2725L3.44674 18.6822Z" fill="#414F5C"/>
<defs>
<linearGradient id="paint0_linear_621_10961" x1="28.4862" y1="12.7887" x2="18.8736" y2="3.12314" gradientUnits="userSpaceOnUse">
<stop stop-color="#D81275"/>
<stop offset="0.3" stop-color="#D91D53"/>
<stop offset="0.6" stop-color="#DA253B"/>
<stop offset="0.8" stop-color="#DA2A2C"/>
<stop offset="1" stop-color="#DB2C27"/>
</linearGradient>
</defs>
</svg>
