<svg width="20" height="22" viewBox="0 0 20 22" fill="none" xmlns="http://www.w3.org/2000/svg">
<path d="M9.029 1.53998C9.32605 1.37502 9.66022 1.28845 10 1.28845C10.3398 1.28845 10.674 1.37502 10.971 1.53998L18.486 5.71398C18.6418 5.80062 18.7716 5.92734 18.862 6.081C18.9524 6.23467 19 6.40971 19 6.58798V14.823C18.9999 15.1796 18.9045 15.5298 18.7235 15.8371C18.5426 16.1445 18.2828 16.3978 17.971 16.571L10.971 20.461C10.674 20.6259 10.3398 20.7125 10 20.7125C9.66022 20.7125 9.32605 20.6259 9.029 20.461L2.029 16.571C1.71736 16.3979 1.45763 16.1447 1.27671 15.8375C1.0958 15.5304 1.00026 15.1805 1 14.824V6.58798C0.999993 6.40971 1.04764 6.23467 1.13802 6.081C1.22839 5.92734 1.3582 5.80062 1.514 5.71398L9.03 1.53998H9.029Z" stroke="#414F5C" stroke-width="1.5" stroke-linecap="round" stroke-linejoin="round"/>
<path d="M1 6L10 11M10 11L19 6M10 11V21" stroke="#414F5C" stroke-width="1.5" stroke-linejoin="round"/>
<path d="M5.5 8.5L14.5 3.5M4 11.328L7 13" stroke="#E44160" stroke-width="1.5" stroke-linecap="round" stroke-linejoin="round"/>
</svg>
