<svg width="36" height="44" viewBox="0 0 36 44" fill="none" xmlns="http://www.w3.org/2000/svg">
<g clip-path="url(#clip0_1134_23704)">
<path d="M9.65478 36.6086C9.54964 36.8721 9.34149 37.0824 9.07604 37.1933C8.81059 37.3043 8.50955 37.3068 8.23903 37.2003C8.10504 37.1473 7.98262 37.0692 7.87877 36.9703C7.77491 36.8714 7.69166 36.7537 7.63376 36.6239C7.57586 36.4941 7.54444 36.3548 7.54131 36.2139C7.53817 36.0729 7.56338 35.9332 7.61548 35.8026L7.62523 35.7782C7.73074 35.5148 7.93919 35.3048 8.2048 35.1942C8.47041 35.0837 8.77146 35.0816 9.04183 35.1884C9.31207 35.2952 9.5295 35.5023 9.64628 35.764C9.76306 36.0258 9.76962 36.3208 9.66453 36.5842L9.65478 36.6086Z" fill="#8FFFFD"/>
<path d="M13.0018 37.8891C12.8854 38.1818 12.893 38.5096 13.0229 38.8004C13.1529 39.0912 13.3945 39.3211 13.6948 39.4398L14.0915 39.5966C14.3917 39.7152 14.7259 39.7128 15.0206 39.5898C15.3154 39.4669 15.5466 39.2335 15.6633 38.941C15.78 38.6484 15.7727 38.3208 15.643 38.0301C15.5133 37.7393 15.2719 37.5094 14.9717 37.3908L14.575 37.234C14.2747 37.1153 13.9404 37.1176 13.6454 37.2404C13.3504 37.3633 13.1189 37.5966 13.0018 37.8891Z" fill="#8FFFFD"/>
<path d="M11.7763 35.3991L12.3331 35.6192C12.5221 35.6939 12.6948 35.8042 12.8413 35.9437C12.9878 36.0832 13.1052 36.2492 13.1869 36.4323C13.2686 36.6154 13.3129 36.8119 13.3173 37.0107C13.3217 37.2095 13.2862 37.4066 13.2127 37.5908L12.988 38.1538C12.9142 38.3382 12.8038 38.5061 12.6632 38.6477C12.5226 38.7894 12.3544 38.9021 12.1684 38.9794C11.9823 39.0566 11.782 39.097 11.5789 39.0982C11.3759 39.0993 11.174 39.0612 10.9848 38.986L10.428 38.7659C10.239 38.6912 10.0663 38.581 9.91977 38.4415C9.77327 38.302 9.65583 38.1359 9.57415 37.9528C9.49247 37.7698 9.44815 37.5732 9.44373 37.3745C9.43931 37.1757 9.47486 36.9786 9.54837 36.7943L9.77302 36.2314C9.84667 36.0468 9.95695 35.8788 10.0976 35.7371C10.2382 35.5953 10.4063 35.4825 10.5924 35.4052C10.7785 35.3279 10.9789 35.2876 11.182 35.2865C11.3852 35.2855 11.5871 35.3238 11.7763 35.3991Z" fill="white"/>
<path d="M30.702 8.85399C30.4422 9.50516 27.3913 8.91192 23.889 7.52772C20.3867 6.14353 17.7567 4.49158 18.0166 3.84041C18.2764 3.18924 21.3273 3.78248 24.831 5.16722C28.3346 6.55197 30.9618 8.20282 30.702 8.85399Z" fill="#FFFDFA"/>
<path d="M10.8459 38.5839C10.4671 38.4342 10.1623 38.144 9.99866 37.7771C9.83498 37.4102 9.82578 36.9967 9.97308 36.6276C10.1204 36.2584 10.4121 35.9639 10.7841 35.8087C11.1561 35.6535 11.5779 35.6504 11.9567 35.8001C12.0362 35.8323 12.1131 35.8705 12.1866 35.9146L12.5082 35.1087L3.46008 31.5327L14.2673 4.44934L23.3153 8.02536L23.8458 6.69588L19.2912 4.89576C19.2119 4.86876 19.1388 4.82632 19.0764 4.77103C19.0139 4.71574 18.9634 4.64875 18.9279 4.57413C18.8924 4.4995 18.8726 4.4188 18.8697 4.33691C18.8669 4.25503 18.881 4.17367 18.9113 4.09777C18.9416 4.02187 18.9874 3.95302 19.0459 3.89539C19.1044 3.83776 19.1745 3.79256 19.2517 3.76252C19.329 3.73248 19.412 3.71823 19.4955 3.72065C19.5791 3.72306 19.6615 3.74209 19.7378 3.77656L24.2924 5.57667L24.8224 4.24855L16.5232 0.968517C15.8748 0.714311 15.1537 0.720564 14.5176 0.985911C13.8815 1.25126 13.382 1.75413 13.1283 2.38465L0.956398 32.888C0.705987 33.5199 0.722639 34.2268 1.00271 34.8541C1.28278 35.4814 1.80345 35.9779 2.45073 36.235L10.7555 39.5172L11.0987 38.6571C11.0126 38.6395 10.9281 38.615 10.8459 38.5839ZM8.68679 36.7615C8.57391 36.7169 8.47658 36.6407 8.40712 36.5425C8.33765 36.4443 8.29916 36.3285 8.29652 36.2098C8.29388 36.0911 8.3272 35.9748 8.39228 35.8756C8.45735 35.7764 8.55125 35.6988 8.66211 35.6525C8.77297 35.6063 8.8958 35.5935 9.01507 35.6158C9.13435 35.6381 9.24471 35.6945 9.33219 35.7778C9.41968 35.8611 9.48037 35.9676 9.50658 36.0839C9.5328 36.2001 9.52336 36.3209 9.47946 36.4309C9.42027 36.5782 9.30366 36.6956 9.15511 36.7576C9.00657 36.8195 8.83818 36.821 8.68679 36.7615Z" fill="#D71F26"/>
<path d="M32.6507 7.34262L24.822 4.24854L24.2921 5.57666L28.372 7.18917C28.5166 7.2545 28.6308 7.37146 28.691 7.51585C28.7512 7.66024 28.7528 7.82098 28.6954 7.96481C28.638 8.10863 28.526 8.22452 28.3827 8.28847C28.2394 8.35243 28.0757 8.35955 27.9254 8.30837L23.8455 6.69586L23.3149 8.02534L31.8884 11.4138L21.0812 38.4971L12.5078 35.1087L12.1862 35.9145C12.4977 36.1004 12.7333 36.3875 12.8513 36.7249C12.9693 37.0623 12.962 37.428 12.8307 37.7571C12.6994 38.0862 12.4526 38.3573 12.1342 38.5222C11.8157 38.687 11.4463 38.735 11.0916 38.6576L10.7495 39.515L18.5782 42.6091C19.2266 42.8637 19.9478 42.8576 20.5841 42.5922C21.2203 42.3268 21.7198 41.8237 21.9732 41.1929L34.1445 10.6909C34.395 10.059 34.3784 9.3519 34.0985 8.72441C33.8185 8.09692 33.298 7.60009 32.6507 7.34262ZM13.674 38.7327C13.5611 38.6881 13.4638 38.6119 13.3943 38.5137C13.3248 38.4155 13.2864 38.2997 13.2837 38.181C13.2811 38.0623 13.3144 37.946 13.3795 37.8468C13.4445 37.7476 13.5384 37.67 13.6493 37.6237C13.7602 37.5775 13.883 37.5647 14.0023 37.587C14.1215 37.6093 14.2319 37.6657 14.3194 37.749C14.4069 37.8323 14.4676 37.9388 14.4938 38.0551C14.52 38.1713 14.5105 38.2921 14.4667 38.4021C14.4075 38.5494 14.2908 38.6668 14.1423 38.7288C13.9938 38.7907 13.8254 38.7922 13.674 38.7327Z" fill="#EE323E"/>
<path d="M14.241 4.51416L3.51553 31.3927L31.7246 11.4241L14.241 4.51416Z" fill="#C3E1DB"/>
<path d="M3.51553 31.3927L3.43379 31.5975L21.0553 38.562L31.8625 11.4786L31.7247 11.4241L3.51553 31.3927Z" fill="#9AD2D9"/>
</g>
<defs>
<clipPath id="clip0_1134_23704">
<rect width="22.6045" height="37.972" fill="white" transform="matrix(0.93 0.367559 -0.370617 0.928786 14.073 0)"/>
</clipPath>
</defs>
</svg>
