<svg width="32" height="32" viewBox="0 0 32 32" fill="none" xmlns="http://www.w3.org/2000/svg">
<path fill-rule="evenodd" clip-rule="evenodd" d="M25.646 9.03223C26.0338 9.03216 26.4178 9.10849 26.7761 9.25686C27.1345 9.40526 27.4601 9.62281 27.7343 9.89708M27.7343 9.89708L30.1585 12.3213C30.1585 12.3213 30.1585 12.3213 30.1585 12.3213C30.4328 12.5955 30.6504 12.9212 30.7988 13.2795C30.9471 13.6378 31.0235 14.0218 31.0234 14.4096C31.0234 14.4097 31.0234 14.4096 31.0234 14.4096V20.0956C31.0234 20.4833 30.947 20.8673 30.7986 21.2255C30.6503 21.5837 30.4328 21.9092 30.1586 22.1834C29.8844 22.4576 29.5589 22.675 29.2007 22.8234C28.8425 22.9718 28.4585 23.0482 28.0708 23.0482H22.3632C21.9755 23.0482 21.5916 22.9718 21.2333 22.8234C20.8751 22.675 20.5496 22.4576 20.2754 22.1834C20.0013 21.9092 19.7838 21.5837 19.6354 21.2255C19.487 20.8673 19.4106 20.4833 19.4106 20.0956V11.9848C19.4106 11.2017 19.7217 10.4507 20.2754 9.89702C20.8292 9.3433 21.5802 9.03223 22.3632 9.03223H25.646C25.6461 9.03223 25.6459 9.03223 25.646 9.03223M26.0109 11.1047C25.8953 11.0568 25.7714 11.0322 25.6462 11.0322H22.3632C22.1106 11.0322 21.8683 11.1326 21.6897 11.3112C21.511 11.4899 21.4106 11.7322 21.4106 11.9848V20.0956C21.4106 20.2207 21.4353 20.3445 21.4832 20.4601C21.531 20.5757 21.6012 20.6807 21.6897 20.7692C21.7781 20.8576 21.8831 20.9278 21.9987 20.9757C22.1143 21.0235 22.2381 21.0482 22.3632 21.0482H28.0708C28.1959 21.0482 28.3198 21.0235 28.4354 20.9757C28.5509 20.9278 28.6559 20.8576 28.7444 20.7692C28.8328 20.6807 28.903 20.5757 28.9509 20.4601C28.9988 20.3445 29.0234 20.2207 29.0234 20.0956V14.4096C29.0234 14.2845 28.9988 14.1603 28.9509 14.0447C28.903 13.9291 28.8329 13.824 28.7444 13.7355L26.3201 11.3113C26.2316 11.2228 26.1265 11.1526 26.0109 11.1047Z" fill="#E44160"/>
<path fill-rule="evenodd" clip-rule="evenodd" d="M21.9126 16.1537C21.9126 15.1965 22.6886 14.4204 23.6459 14.4204H26.7883C27.7456 14.4204 28.5217 15.1964 28.5217 16.1537V18.7851C28.5217 19.7424 27.7456 20.5184 26.7883 20.5184H23.6459C22.6886 20.5184 21.9126 19.7424 21.9126 18.7851V16.1537ZM23.6459 15.7537C23.425 15.7537 23.2459 15.9328 23.2459 16.1537V18.7851C23.2459 19.006 23.425 19.1851 23.6459 19.1851H26.7883C27.0093 19.1851 27.1883 19.006 27.1883 18.7851V16.1537C27.1883 15.9328 27.0093 15.7537 26.7883 15.7537H23.6459Z" fill="#414F5C"/>
<path fill-rule="evenodd" clip-rule="evenodd" d="M25.4519 18.1922H22.5793V16.8589H25.4519V18.1922Z" fill="#414F5C"/>
<path fill-rule="evenodd" clip-rule="evenodd" d="M24.7851 19.8518L24.7851 15.083L26.1184 15.083L26.1184 19.8518L24.7851 19.8518Z" fill="#414F5C"/>
<path fill-rule="evenodd" clip-rule="evenodd" d="M16 26.875C16.5304 26.875 17.0391 26.6643 17.4142 26.2892C17.7893 25.9141 18 25.4054 18 24.875C18 24.3446 17.7893 23.8359 17.4142 23.4608C17.0391 23.0857 16.5304 22.875 16 22.875C15.4696 22.875 14.9609 23.0857 14.5858 23.4608C14.2107 23.8359 14 24.3446 14 24.875C14 25.4054 14.2107 25.9141 14.5858 26.2892C14.9609 26.6643 15.4696 26.875 16 26.875Z" fill="#414F5C"/>
<path fill-rule="evenodd" clip-rule="evenodd" d="M6.93615 1.40147C7.83714 0.530186 9.0522 0.0463867 10.3124 0.0463867H21.6874C22.9476 0.0463867 24.1627 0.530186 25.0637 1.40147C25.9658 2.27386 26.4791 3.46435 26.4791 4.71305V6.54421C26.4791 7.09649 26.0314 7.54421 25.4791 7.54421C24.9268 7.54421 24.4791 7.09649 24.4791 6.54421V4.71305C24.4791 4.01683 24.1934 3.34206 23.6734 2.83919C23.1522 2.3352 22.4384 2.04639 21.6874 2.04639H10.3124C9.56141 2.04639 8.84763 2.3352 8.32646 2.83919C7.80644 3.34206 7.52075 4.01683 7.52075 4.71305V26.7131C7.52075 27.4093 7.80644 28.084 8.32646 28.5869C8.84763 29.0909 9.56141 29.3797 10.3124 29.3797H21.6874C22.4384 29.3797 23.1522 29.0909 23.6734 28.5869C24.1934 28.084 24.4791 27.4093 24.4791 26.7131V25.0482C24.4791 24.4959 24.9268 24.0482 25.4791 24.0482C26.0314 24.0482 26.4791 24.4959 26.4791 25.0482V26.7131C26.4791 27.9618 25.9658 29.1522 25.0637 30.0246C24.1627 30.8959 22.9476 31.3797 21.6874 31.3797H10.3124C9.0522 31.3797 7.83713 30.8959 6.93615 30.0246C6.03402 29.1522 5.52075 27.9618 5.52075 26.7131V4.71305C5.52075 3.46435 6.03402 2.27386 6.93615 1.40147Z" fill="#414F5C"/>
</svg>
