<svg width="40" height="37" viewBox="0 0 40 37" fill="none" xmlns="http://www.w3.org/2000/svg">
<g clip-path="url(#clip0_431_30196)">
<path d="M18.8087 30.6409C18.7212 30.8615 18.5478 31.0375 18.3267 31.1304C18.1055 31.2232 17.8548 31.2253 17.6295 31.1362C17.5178 31.0918 17.4159 31.0264 17.3294 30.9436C17.2429 30.8609 17.1735 30.7624 17.1253 30.6537C17.077 30.5451 17.0509 30.4285 17.0483 30.3105C17.0457 30.1926 17.0666 30.0756 17.1101 29.9663L17.1182 29.9459C17.2061 29.7255 17.3797 29.5497 17.6009 29.4571C17.8222 29.3646 18.073 29.3628 18.2982 29.4523C18.5233 29.5417 18.7044 29.715 18.8017 29.9341C18.8989 30.1531 18.9044 30.4001 18.8169 30.6205L18.8087 30.6409Z" fill="#8FFFFD"/>
<path d="M21.5968 31.7122C21.4998 31.9573 21.5061 32.2316 21.6144 32.475C21.7226 32.7183 21.9239 32.9108 22.174 33.0102L22.5045 33.1414C22.7545 33.2407 23.0329 33.2386 23.2784 33.1357C23.524 33.0328 23.7165 32.8374 23.8138 32.5926C23.911 32.3478 23.9049 32.0735 23.7969 31.8302C23.6889 31.5869 23.4877 31.3944 23.2377 31.2951L22.9072 31.1639C22.6571 31.0646 22.3786 31.0665 22.1329 31.1693C21.8872 31.2721 21.6944 31.4674 21.5968 31.7122Z" fill="#8FFFFD"/>
<path d="M20.576 29.6284L21.0398 29.8126C21.1972 29.8751 21.3411 29.9674 21.4631 30.0842C21.5851 30.2009 21.6829 30.3399 21.751 30.4931C21.819 30.6464 21.8559 30.8109 21.8596 30.9772C21.8633 31.1436 21.8337 31.3086 21.7725 31.4628L21.5853 31.934C21.5238 32.0884 21.4319 32.2288 21.3147 32.3474C21.1976 32.466 21.0575 32.5603 20.9026 32.625C20.7476 32.6897 20.5807 32.7235 20.4116 32.7244C20.2424 32.7254 20.0742 32.6935 19.9166 32.6306L19.4528 32.4464C19.2954 32.3838 19.1515 32.2916 19.0295 32.1748C18.9075 32.058 18.8097 31.9191 18.7416 31.7658C18.6736 31.6126 18.6367 31.4481 18.633 31.2817C18.6293 31.1153 18.6589 30.9504 18.7202 30.7962L18.9073 30.325C18.9686 30.1705 19.0605 30.0299 19.1776 29.9112C19.2947 29.7926 19.4348 29.6982 19.5898 29.6335C19.7449 29.5688 19.9118 29.535 20.081 29.5342C20.2502 29.5333 20.4184 29.5653 20.576 29.6284Z" fill="white"/>
<path d="M36.3407 7.41071C36.1242 7.95573 33.5829 7.45919 30.6656 6.30064C27.7482 5.14209 25.5575 3.75944 25.774 3.21442C25.9904 2.66939 28.5317 3.16593 31.4502 4.32494C34.3687 5.48395 36.5571 6.86568 36.3407 7.41071Z" fill="#FFFDFA"/>
<path d="M19.8009 32.2941C19.4854 32.1688 19.2315 31.9258 19.0952 31.6188C18.9588 31.3117 18.9512 30.9656 19.0739 30.6566C19.1966 30.3476 19.4396 30.1011 19.7495 29.9712C20.0593 29.8414 20.4107 29.8388 20.7262 29.9641C20.7924 29.991 20.8565 30.023 20.9177 30.0599L21.1855 29.3854L13.6487 26.3923L22.6508 3.72394L30.1877 6.71701L30.6296 5.60426L26.8357 4.09759C26.7696 4.07498 26.7087 4.03947 26.6567 3.99319C26.6047 3.94691 26.5626 3.89084 26.533 3.82839C26.5034 3.76593 26.487 3.69838 26.4846 3.62984C26.4822 3.5613 26.494 3.49321 26.5192 3.42968C26.5444 3.36616 26.5826 3.30853 26.6313 3.26029C26.6801 3.21206 26.7384 3.17422 26.8028 3.14908C26.8672 3.12394 26.9363 3.11202 27.0059 3.11404C27.0755 3.11606 27.1441 3.13198 27.2077 3.16083L31.0016 4.6675L31.4431 3.55588L24.53 0.810544C23.9899 0.597777 23.3893 0.603011 22.8594 0.825102C22.3295 1.04719 21.9134 1.46809 21.7021 1.99583L11.5632 27.5267C11.3546 28.0555 11.3684 28.6472 11.6017 29.1723C11.835 29.6973 12.2687 30.1129 12.8079 30.328L19.7256 33.0752L20.0115 32.3553C19.9398 32.3406 19.8694 32.3201 19.8009 32.2941ZM18.0024 30.7688C17.9084 30.7314 17.8273 30.6676 17.7694 30.5854C17.7116 30.5032 17.6795 30.4063 17.6773 30.307C17.6751 30.2076 17.7029 30.1103 17.7571 30.0272C17.8113 29.9442 17.8895 29.8792 17.9819 29.8405C18.0742 29.8018 18.1765 29.7911 18.2759 29.8098C18.3752 29.8285 18.4671 29.8756 18.54 29.9454C18.6129 30.0151 18.6634 30.1043 18.6853 30.2016C18.7071 30.2989 18.6993 30.3999 18.6627 30.492C18.6134 30.6153 18.5162 30.7136 18.3925 30.7654C18.2688 30.8173 18.1285 30.8185 18.0024 30.7688Z" fill="#D71F26"/>
<path d="M37.964 6.14536L31.4429 3.55566L31.0014 4.66728L34.4 6.01693C34.5204 6.07161 34.6155 6.16951 34.6657 6.29036C34.7158 6.41121 34.7171 6.54575 34.6693 6.66613C34.6215 6.78651 34.5282 6.8835 34.4089 6.93703C34.2895 6.99056 34.1531 6.99652 34.028 6.95368L30.6294 5.60404L30.1875 6.71679L37.329 9.55284L28.3268 32.2212L21.1853 29.3852L20.9175 30.0596C21.1769 30.2152 21.3732 30.4555 21.4715 30.7379C21.5698 31.0203 21.5637 31.3264 21.4544 31.6018C21.345 31.8773 21.1394 32.1042 20.8741 32.2422C20.6089 32.3802 20.3012 32.4203 20.0057 32.3555L19.7208 33.0732L26.2419 35.6629C26.782 35.876 27.3828 35.8709 27.9127 35.6488C28.4427 35.4266 28.8587 35.0055 29.0698 34.4776L39.2083 8.94783C39.4169 8.4189 39.4031 7.8271 39.17 7.3019C38.9368 6.77671 38.5032 6.36086 37.964 6.14536ZM22.1568 32.4184C22.0628 32.3811 21.9817 32.3173 21.9238 32.2351C21.8659 32.1529 21.8339 32.056 21.8317 31.9566C21.8295 31.8573 21.8572 31.7599 21.9115 31.6769C21.9657 31.5939 22.0439 31.5289 22.1362 31.4902C22.2286 31.4515 22.3309 31.4408 22.4302 31.4595C22.5296 31.4781 22.6215 31.5253 22.6944 31.595C22.7673 31.6648 22.8178 31.7539 22.8396 31.8512C22.8615 31.9485 22.8536 32.0496 22.8171 32.1417C22.7678 32.2649 22.6706 32.3632 22.5469 32.4151C22.4231 32.467 22.2829 32.4682 22.1568 32.4184Z" fill="#EE323E"/>
<path d="M22.6289 3.77832L13.6948 26.2752L37.1925 9.56186L22.6289 3.77832Z" fill="#C3E1DB"/>
<path d="M13.6948 26.2752L13.6267 26.4467L28.3051 32.2758L37.3073 9.60745L37.1925 9.56186L13.6948 26.2752Z" fill="#9AD2D9"/>
</g>
<path d="M13.6033 6.29928L18.001 19.2856C18.0715 19.4983 18.0268 19.74 17.8766 19.9578C17.7263 20.1756 17.4828 20.3518 17.1993 20.4478L6.59759 24.0379C6.3132 24.1342 6.01181 24.142 5.75974 24.0596C5.50766 23.9771 5.32554 23.8112 5.25344 23.5983L0.27186 8.88776C0.199761 8.67485 0.243588 8.43241 0.393702 8.21376C0.543816 7.99511 0.78792 7.81817 1.07231 7.72186L10.12 4.65794C10.1655 4.64197 10.213 4.63294 10.2597 4.63138C10.3064 4.62983 10.3514 4.63577 10.392 4.64887L13.4495 6.14964C13.5273 6.17789 13.5825 6.23159 13.6033 6.29928Z" fill="#D71F26"/>
<path d="M13.4476 6.15441L10.3923 4.65701C10.3517 4.64392 10.3068 4.63798 10.2601 4.63953C10.2134 4.64109 10.1659 4.65012 10.1204 4.66609L6.37452 5.9346L11.8973 22.2432L17.2001 20.4475C17.4845 20.3512 17.7286 20.1742 17.8787 19.9556C18.0288 19.7369 18.0727 19.4945 18.0006 19.2816L13.6029 6.29524C13.5792 6.23095 13.5237 6.18063 13.4476 6.15441Z" fill="#EE323E"/>
<path d="M3.84983 12.8222L6.51037 20.6787C6.74168 21.3618 7.57629 21.6964 8.37452 21.4261L14.1906 19.4565C14.9888 19.1862 15.4484 18.4133 15.2171 17.7303L12.5566 9.87375C12.3253 9.19069 11.4907 8.85609 10.6924 9.1264L4.87633 11.096C4.0781 11.3663 3.61852 12.1391 3.84983 12.8222Z" fill="#FFE078"/>
<path d="M3.86723 13.0374L6.39403 20.4989C6.67046 21.3152 7.514 21.7696 8.27496 21.512L14.3298 19.4615C15.0908 19.2039 15.4846 18.3304 15.2082 17.5141L12.6814 10.0525C12.405 9.23623 11.5614 8.78182 10.8005 9.03951L4.74564 11.0899C3.98141 11.3478 3.59051 12.2202 3.86723 13.0374ZM8.24469 21.4226C7.54243 21.6604 6.76075 21.2315 6.50133 20.4655L5.3342 17.019L5.75596 16.8761C5.76058 16.8898 5.77186 16.9002 5.77875 16.914C5.80599 16.9617 5.83494 17.0078 5.86658 17.0522C5.8819 17.0745 5.89822 17.0965 5.91453 17.1185C5.94601 17.159 5.97791 17.1976 6.0118 17.2354C6.0261 17.2515 6.03941 17.2678 6.0547 17.2835C6.10116 17.3323 6.15102 17.3781 6.20287 17.4231C6.224 17.4397 6.24513 17.4562 6.26726 17.4725C6.30196 17.4996 6.33736 17.5256 6.37446 17.55C6.39316 17.5627 6.41044 17.5777 6.43142 17.5905C6.47365 17.617 6.51759 17.642 6.56166 17.6641L6.58077 17.6747C6.62455 17.6959 6.66804 17.7163 6.72093 17.7382L6.73504 17.7439C6.78123 17.7624 6.82655 17.7784 6.87329 17.7919L6.89224 17.7988C6.99646 17.8303 7.10446 17.8534 7.21501 17.8679L7.25857 17.8721L7.28363 17.8741L7.37701 17.8813L7.43935 17.882L7.47621 17.8828L8.6292 21.2876L8.24469 21.4226ZM8.74205 21.2542L7.59886 17.8783C7.61621 17.8772 7.63142 17.873 7.64878 17.8718C7.70619 17.867 7.76355 17.8593 7.82059 17.8488L7.8914 17.8352C7.96522 17.8201 8.03822 17.8004 8.10988 17.7764C8.49111 17.6452 8.82289 17.4074 9.05121 17.1018C9.08095 17.0655 9.11272 17.0303 9.14639 16.9966L10.3983 20.6933L8.74205 21.2542ZM10.5077 20.6562L9.23938 16.911C9.28802 16.8662 9.33965 16.824 9.39395 16.7846L9.44206 16.7532C9.49017 16.7217 9.53985 16.6916 9.59139 16.6637L9.6462 16.6356C9.71493 16.6014 9.78602 16.5716 9.85885 16.5465L10.1254 16.4563C10.2005 16.4311 10.2772 16.4111 10.3547 16.3967C10.3826 16.3872 10.4116 16.3878 10.4402 16.3838C10.4881 16.3759 10.5362 16.3704 10.5843 16.3673C10.6177 16.3645 10.651 16.3646 10.6843 16.3647C10.7176 16.3649 10.7711 16.3657 10.8144 16.3691C10.8577 16.3725 10.8807 16.3751 10.9132 16.3793L10.9663 16.3888L12.2156 20.0779L10.5077 20.6562ZM12.325 20.0408L11.0942 16.4062L11.1026 16.4081C11.4696 16.5121 11.8776 16.4993 12.2601 16.3719C12.3265 16.3489 12.3915 16.3221 12.4547 16.2918L12.4826 16.2824C12.5429 16.2531 12.6016 16.2208 12.6584 16.1858L12.6693 16.1821L13.8062 19.5392L12.325 20.0408ZM13.9406 14.1083L15.1066 17.5514C15.366 18.3174 15.0058 19.133 14.3045 19.3705L13.9186 19.5012L12.771 16.1126C12.7872 16.1014 12.8005 16.0884 12.8164 16.0763C12.8499 16.0508 12.8831 16.0243 12.9157 15.9962C12.9483 15.9681 12.9676 15.953 12.9908 15.93C13.0345 15.8886 13.0733 15.8461 13.1165 15.8001C13.1396 15.7733 13.1611 15.7452 13.1829 15.7179C13.2047 15.6906 13.2269 15.6612 13.2478 15.6314L13.3048 15.5475C13.3379 15.4946 13.3694 15.4403 13.3971 15.3844C13.4064 15.3661 13.4137 15.3484 13.422 15.3304C13.4459 15.2797 13.4671 15.2279 13.4868 15.1747L13.5059 15.1198C13.5536 14.9741 13.5841 14.8258 13.5967 14.6773L13.5986 14.6568C13.6093 14.5117 13.6036 14.3674 13.5814 14.2261L13.9406 14.1083ZM10.8374 9.1323C11.5387 8.89482 12.3204 9.3237 12.5798 10.0898L13.7461 13.5337L13.39 13.6543C13.3476 13.5727 13.2991 13.494 13.2448 13.4188C12.8697 12.9006 12.2506 12.598 11.5871 12.6262L10.4485 9.26401L10.8374 9.1323ZM10.3451 9.29905L11.5061 12.7277L11.5464 12.7254C12.198 12.685 12.8102 12.9834 13.1714 13.5034C13.2244 13.5791 13.2709 13.6585 13.3106 13.7409L13.3295 13.7801L13.7781 13.6282L13.9107 14.0197L13.4551 14.174L13.458 14.1825L13.4686 14.2501L13.4736 14.2844L13.4785 14.2989C13.4828 14.3345 13.4874 14.3709 13.4907 14.4068C13.4944 14.4178 13.4922 14.4309 13.4922 14.4442C13.5006 14.5964 13.4889 14.7507 13.4572 14.9039L13.4496 14.934C13.4365 14.9934 13.4196 15.0514 13.3983 15.1098L13.3817 15.1591C13.3597 15.2201 13.3342 15.2803 13.3054 15.3396C13.2942 15.3623 13.2808 15.3849 13.2684 15.4071C13.2559 15.4294 13.2283 15.4786 13.2065 15.5125C13.1847 15.5465 13.1727 15.5667 13.1539 15.593C13.1351 15.6193 13.1024 15.6635 13.0781 15.6964C13.0537 15.7294 13.0177 15.7672 12.9859 15.8007C12.954 15.8343 12.9359 15.8528 12.9089 15.878C12.882 15.9033 12.8616 15.9216 12.8365 15.9424C12.794 15.9788 12.7494 16.0133 12.7029 16.0455L12.6786 16.0623C12.613 16.1057 12.5447 16.1457 12.474 16.1818L12.4452 16.1916C12.3764 16.2258 12.3054 16.2555 12.2325 16.2807C11.8746 16.3998 11.4929 16.4117 11.1496 16.3144L11.1175 16.3082L11.0587 16.2949L11.0302 16.2893L11.013 16.2876L10.9321 16.2713L10.9335 16.2756L10.8474 16.2668C10.8019 16.2633 10.7562 16.2626 10.7095 16.2623C10.6628 16.262 10.6361 16.2615 10.5991 16.2636C10.5478 16.2672 10.4965 16.2731 10.4455 16.2815C10.4133 16.2846 10.3811 16.2892 10.3492 16.2951C10.2648 16.3111 10.1814 16.333 10.0997 16.3606L9.83013 16.4519C9.75324 16.4782 9.67824 16.5096 9.60583 16.5459C9.57797 16.5553 9.55499 16.5726 9.52958 16.5859C9.48273 16.6113 9.43645 16.6384 9.39373 16.6661C9.36847 16.6832 9.34293 16.6994 9.31895 16.717C9.2798 16.7455 9.2435 16.7758 9.20748 16.807L9.20546 16.801L9.14268 16.8612L9.13771 16.8629L9.11928 16.8805C9.06525 16.9331 9.01517 16.9888 8.96943 17.047C8.75551 17.333 8.44481 17.5556 8.08783 17.6786C8.00954 17.7042 7.9297 17.7246 7.84901 17.7395L7.791 17.7516C7.7178 17.7629 7.64429 17.77 7.57094 17.773C7.15326 17.7844 6.75673 17.671 6.44519 17.4511C6.41194 17.4282 6.37868 17.4053 6.34713 17.3809C6.31558 17.3565 6.298 17.3406 6.27444 17.3201C6.23073 17.2827 6.19001 17.2444 6.15041 17.2027C6.13169 17.1835 6.11466 17.1627 6.09665 17.1422C6.06375 17.104 6.033 17.0689 6.00265 17.0251C5.98662 17.0039 5.9713 16.9816 5.95597 16.9593C5.92646 16.9136 5.89823 16.8662 5.87126 16.8172C5.86694 16.8044 5.85793 16.7942 5.85162 16.7821L5.8321 16.7441L5.29496 16.926L5.16236 16.5344L5.67564 16.3606L5.66677 16.3181C5.66533 16.3151 5.66427 16.312 5.6636 16.3087C5.65065 16.241 5.64267 16.1716 5.63725 16.1032L5.63372 16.0437C5.63174 15.9789 5.63104 15.9146 5.63675 15.8529C5.63444 15.8461 5.63683 15.8367 5.63722 15.8281C5.64356 15.7574 5.65404 15.6867 5.66861 15.6163C5.67209 15.5971 5.67685 15.5784 5.68161 15.5597C5.69474 15.499 5.7113 15.4386 5.73121 15.3788C5.83363 15.0699 6.03091 14.785 6.30007 14.5571L6.31496 14.5454C6.34715 14.5193 6.38091 14.4946 6.41397 14.471C6.47721 14.4266 6.54341 14.3858 6.61211 14.3489L6.66054 14.3249C6.73473 14.2875 6.81152 14.2548 6.89023 14.2272C7.24721 14.1083 7.62789 14.0961 7.97063 14.1925C8.0433 14.2112 8.11799 14.225 8.19408 14.2335L8.21843 14.2367L8.22539 14.2343L8.31637 14.2443L8.31435 14.2383C8.36289 14.2409 8.41143 14.2434 8.45981 14.2422L8.53023 14.2373C8.59005 14.2333 8.64987 14.2263 8.70945 14.2165C8.73133 14.2091 8.75481 14.2097 8.77756 14.2048C8.85837 14.1888 8.93832 14.1677 9.0168 14.1418L9.30825 14.0431C9.61078 13.9422 9.88124 13.7671 10.0858 13.5398L10.1051 13.5181L8.84686 9.8026L10.3451 9.29905ZM8.75351 9.83801L9.99673 13.5092C9.80442 13.7121 9.55528 13.8672 9.27885 13.9563L8.99635 14.052C8.92359 14.0762 8.84936 14.0956 8.77431 14.1101L8.71573 14.1204C8.65662 14.1307 8.5972 14.1379 8.53779 14.1418L8.488 14.1454C8.42177 14.147 8.35588 14.1449 8.29073 14.1391L7.03051 10.4177L8.75351 9.83801ZM6.93617 10.4534L8.17795 14.1204C8.1294 14.1142 8.0816 14.1053 8.03481 14.0939C7.66869 13.9916 7.26235 14.0052 6.88143 14.1325C6.80943 14.1576 6.73888 14.1865 6.67019 14.2192L6.60941 14.2493C6.55376 14.2782 6.4996 14.3095 6.44715 14.3431L6.41365 14.362L5.27881 11.0109L6.93617 10.4534ZM6.31547 14.4323L6.28299 14.4575L6.263 14.4738L6.2403 14.4919C6.2152 14.5127 6.19168 14.5349 6.16375 14.5605L6.14674 14.5758L6.1191 14.6022C6.08013 14.641 6.04245 14.6804 6.00762 14.7216L5.98752 14.7473C5.9592 14.7816 5.93117 14.8167 5.90472 14.8532L5.88125 14.8887C5.85749 14.9233 5.83501 14.9584 5.81382 14.994L5.79391 15.0302C5.77653 15.0607 5.76044 15.0918 5.74464 15.1237L5.7404 15.1309L5.73362 15.1436L5.71882 15.1752C5.70684 15.202 5.69501 15.2326 5.6829 15.2623L5.6705 15.2912L5.66276 15.3109L5.65755 15.325C5.65277 15.337 5.65083 15.3509 5.64605 15.363C5.62763 15.4167 5.6122 15.4693 5.59921 15.5259L5.58452 15.584C5.5703 15.6534 5.55893 15.7246 5.55183 15.7953C5.55019 15.8101 5.55082 15.8251 5.54918 15.8399C5.54488 15.8992 5.54414 15.9592 5.54468 16.0198C5.54576 16.0393 5.54584 16.0592 5.54721 16.0796C5.55057 16.1536 5.55839 16.2269 5.57063 16.2994L5.13296 16.4476L3.9667 13.0037C3.70728 12.2376 4.06754 11.422 4.7698 11.1842L5.15575 11.0535L6.31547 14.4323Z" fill="#856628"/>
<defs>
<clipPath id="clip0_431_30196">
<rect width="18.8413" height="31.7611" fill="white" transform="translate(22.489) rotate(21.6592)"/>
</clipPath>
</defs>
</svg>
