<svg width="24" height="24" viewBox="0 0 24 24" fill="none" xmlns="http://www.w3.org/2000/svg">
<defs>
<clipPath id="clip0_431_15223">
<rect width="24" height="24" fill="white"/>
</clipPath>
</defs>
<g clip-path="url(#clip0_431_15223)">
<path fill-rule="evenodd" clip-rule="evenodd" d="M12.0001 8.6501C10.7022 8.6501 9.6501 9.70223 9.6501 11.0001C9.6501 12.298 10.7022 13.3501 12.0001 13.3501C13.298 13.3501 14.3501 12.298 14.3501 11.0001C14.3501 9.70223 13.298 8.6501 12.0001 8.6501ZM8.3501 11.0001C8.3501 8.98426 9.98426 7.3501 12.0001 7.3501C14.0159 7.3501 15.6501 8.98426 15.6501 11.0001C15.6501 13.0159 14.0159 14.6501 12.0001 14.6501C9.98426 14.6501 8.3501 13.0159 8.3501 11.0001Z" fill="white"/>
<path fill-rule="evenodd" clip-rule="evenodd" d="M12.0001 3.8501C10.586 3.8501 9.20362 4.26943 8.02781 5.05506C6.85201 5.8407 5.93558 6.95736 5.3944 8.26383C4.85322 9.5703 4.71161 11.0079 4.98746 12.3949C5.2633 13.7817 5.94423 15.0557 6.94407 16.0557C6.94412 16.0557 6.94417 16.0558 6.94422 16.0558L11.1878 20.2985C11.4035 20.5139 11.6958 20.6349 12.0006 20.6349C12.3052 20.6349 12.5978 20.5138 12.8136 20.2982L17.056 16.0558C17.0561 16.0558 17.0561 16.0558 17.0561 16.0558C18.056 15.0558 18.7369 13.7818 19.0127 12.3949C19.2886 11.0079 19.147 9.5703 18.6058 8.26383C18.0646 6.95736 17.1482 5.8407 15.9724 5.05506C14.7966 4.26943 13.4142 3.8501 12.0001 3.8501ZM18.1167 17.1164C19.3264 15.9067 20.1502 14.3654 20.4839 12.6875C20.8177 11.0095 20.6463 9.27034 19.9916 7.68978C19.3369 6.10923 18.2282 4.75831 16.8057 3.80785C15.3833 2.8574 13.7109 2.3501 12.0001 2.3501C10.2893 2.3501 8.61694 2.8574 7.19447 3.80785C5.77199 4.75831 4.6633 6.10923 4.00859 7.68978C3.35388 9.27034 3.18255 11.0095 3.51628 12.6875C3.85 14.3654 4.67386 15.9067 5.88354 17.1165L10.1277 21.3597C10.6246 21.856 11.2982 22.1349 12.0006 22.1349C12.703 22.1349 13.3768 21.8558 13.8737 21.3594L18.1167 17.1164Z" fill="white"/>
</g>
</svg>
