<svg width="32" height="32" viewBox="0 0 32 32" fill="none" xmlns="http://www.w3.org/2000/svg">
<defs>
<linearGradient id="paint0_linear_621_10976" x1="25.0892" y1="24.6946" x2="18.0531" y2="18.9379" gradientUnits="userSpaceOnUse">
<stop stop-color="#D81275"/>
<stop offset="0.3" stop-color="#D91D53"/>
<stop offset="0.6" stop-color="#DA253B"/>
<stop offset="0.8" stop-color="#DA2A2C"/>
<stop offset="1" stop-color="#DB2C27"/>
</linearGradient>
<linearGradient id="paint1_linear_621_10976" x1="25.0892" y1="24.6946" x2="18.0531" y2="18.9379" gradientUnits="userSpaceOnUse">
<stop stop-color="#D81275"/>
<stop offset="0.3" stop-color="#D91D53"/>
<stop offset="0.6" stop-color="#DA253B"/>
<stop offset="0.8" stop-color="#DA2A2C"/>
<stop offset="1" stop-color="#DB2C27"/>
</linearGradient>
<linearGradient id="paint2_linear_621_10976" x1="22.7505" y1="25.1931" x2="20.8185" y2="24.9702" gradientUnits="userSpaceOnUse">
<stop stop-color="#D81275"/>
<stop offset="0.3" stop-color="#D91D53"/>
<stop offset="0.6" stop-color="#DA253B"/>
<stop offset="0.8" stop-color="#DA2A2C"/>
<stop offset="1" stop-color="#DB2C27"/>
</linearGradient>
<linearGradient id="paint3_linear_621_10976" x1="22.7505" y1="25.1931" x2="20.8185" y2="24.9702" gradientUnits="userSpaceOnUse">
<stop stop-color="#D81275"/>
<stop offset="0.3" stop-color="#D91D53"/>
<stop offset="0.6" stop-color="#DA253B"/>
<stop offset="0.8" stop-color="#DA2A2C"/>
<stop offset="1" stop-color="#DB2C27"/>
</linearGradient>
<linearGradient id="paint4_linear_621_10976" x1="14.228" y1="11.984" x2="7.62339" y2="2.90269" gradientUnits="userSpaceOnUse">
<stop stop-color="#D81275"/>
<stop offset="0.3" stop-color="#D91D53"/>
<stop offset="0.6" stop-color="#DA253B"/>
<stop offset="0.8" stop-color="#DA2A2C"/>
<stop offset="1" stop-color="#DB2C27"/>
</linearGradient>
</defs>
<path fill-rule="evenodd" clip-rule="evenodd" d="M25.1922 7.00963C24.1925 6.21111 22.7347 6.37424 21.9362 7.37399C21.5915 7.80552 20.9623 7.87594 20.5307 7.53126C20.0992 7.18659 20.0288 6.55735 20.3735 6.12582C21.8613 4.26301 24.5776 3.95906 26.4404 5.44691C28.2879 6.92255 28.6021 9.6065 27.1556 11.4678L28.32 11.3311C28.8685 11.2667 29.3654 11.6592 29.4298 12.2077C29.4942 12.7562 29.1017 13.2531 28.5532 13.3174L25.0636 13.7271C24.8892 13.7475 24.7199 13.7218 24.5681 13.6595C24.2016 13.5461 23.9177 13.2259 23.87 12.8204L23.4604 9.33081C23.396 8.78229 23.7885 8.28543 24.337 8.22105C24.8855 8.15666 25.3824 8.54912 25.4468 9.09764L25.5803 10.2354C26.3517 9.23671 26.1819 7.80012 25.1922 7.00963Z" fill="#E44160"/>
<path fill-rule="evenodd" clip-rule="evenodd" d="M3.44674 18.6826C2.89823 18.747 2.50576 19.2439 2.57015 19.7924C2.63453 20.3409 3.13139 20.7334 3.67991 20.669L4.84446 20.5323C3.39787 22.3936 3.71199 25.0776 5.55955 26.5533C7.42236 28.0412 10.1386 27.7372 11.6265 25.8744C11.9711 25.4429 11.9007 24.8136 11.4692 24.469C11.0377 24.1243 10.4084 24.1947 10.0638 24.6262C9.26524 25.626 7.80746 25.7891 6.80772 24.9906C5.81801 24.2001 5.6482 22.7635 6.41959 21.7648L6.55315 22.9026C6.61753 23.4511 7.11439 23.8436 7.66291 23.7792C8.21143 23.7148 8.6039 23.2179 8.53951 22.6694L8.12989 19.1798C8.08233 18.7747 7.79888 18.4547 7.43295 18.3411C7.28089 18.2784 7.11122 18.2525 6.9363 18.273L3.44674 18.6826Z" fill="#414F5C"/>
<path fill-rule="evenodd" clip-rule="evenodd" d="M22.5791 27.1485C25.4092 27.1485 27.7034 24.8543 27.7034 22.0242C27.7034 19.1941 25.4092 16.8998 22.5791 16.8998C19.749 16.8998 17.4548 19.1941 17.4548 22.0242C17.4548 24.8543 19.749 27.1485 22.5791 27.1485ZM22.5791 28.8818C26.3665 28.8818 29.4368 25.8116 29.4368 22.0242C29.4368 18.2368 26.3665 15.1665 22.5791 15.1665C18.7917 15.1665 15.7214 18.2368 15.7214 22.0242C15.7214 25.8116 18.7917 28.8818 22.5791 28.8818Z" fill="#414F5C"/>
<path d="M23.1069 25.3692H20.0581V18.5386H23.0396C23.7384 18.5386 24.2945 18.7025 24.675 18.9945C25.0546 19.2858 25.2623 19.7065 25.2623 20.2276C25.2623 20.9318 24.6984 21.5645 23.9743 21.6772L23.9478 21.6813V21.7081V21.7896V21.8181L23.9762 21.8207C24.9764 21.9149 25.6355 22.5678 25.6355 23.4471C25.6355 24.0445 25.3994 24.5234 24.9674 24.8539C24.5345 25.1851 23.9021 25.3692 23.1069 25.3692ZM21.1594 21.426V21.4573H21.1906H22.5716C23.0883 21.4573 23.4862 21.3697 23.7558 21.1961C24.0275 21.0211 24.1663 20.7603 24.1663 20.4232C24.1663 20.096 24.036 19.8342 23.7938 19.6554C23.5528 19.4774 23.2039 19.3835 22.7692 19.3835H21.1906V19.4147H21.1594V21.426ZM21.1594 24.4931V24.5243H21.1906H22.8729C23.4007 24.5243 23.8094 24.4259 24.087 24.2313C24.3663 24.0355 24.5094 23.7448 24.5094 23.3704C24.5094 22.9999 24.3604 22.715 24.0698 22.5243C23.7813 22.3349 23.356 22.2402 22.8056 22.2402H21.1906H21.1594V22.2714V24.4931Z" fill="url(#paint0_linear_621_10976)" stroke="url(#paint1_linear_621_10976)" stroke-width="0.0625"/>
<rect x="22.1417" y="18.1159" width="0.469988" height="7.67646" fill="url(#paint2_linear_621_10976)" stroke="url(#paint3_linear_621_10976)" stroke-width="0.469988"/>
<path fill-rule="evenodd" clip-rule="evenodd" d="M9.33333 7.66667C9.55435 7.66667 9.76631 7.57887 9.92259 7.42259C10.0789 7.26631 10.1667 7.05435 10.1667 6.83333C10.1667 6.61232 10.0789 6.40036 9.92259 6.24408C9.76631 6.0878 9.55435 6 9.33333 6C9.11232 6 8.90036 6.0878 8.74408 6.24408C8.5878 6.40036 8.5 6.61232 8.5 6.83333C8.5 7.05435 8.5878 7.26631 8.74408 7.42259C8.90036 7.57887 9.11232 7.66667 9.33333 7.66667ZM11.8333 7.66667C12.0543 7.66667 12.2663 7.57887 12.4226 7.42259C12.5789 7.26631 12.6667 7.05435 12.6667 6.83333C12.6667 6.61232 12.5789 6.40036 12.4226 6.24408C12.2663 6.0878 12.0543 6 11.8333 6C11.6123 6 11.4004 6.0878 11.2441 6.24408C11.0878 6.40036 11 6.61232 11 6.83333C11 7.05435 11.0878 7.26631 11.2441 7.42259C11.4004 7.57887 11.6123 7.66667 11.8333 7.66667V7.66667ZM14.3333 7.66667C14.5543 7.66667 14.7663 7.57887 14.9226 7.42259C15.0789 7.26631 15.1667 7.05435 15.1667 6.83333C15.1667 6.61232 15.0789 6.40036 14.9226 6.24408C14.7663 6.0878 14.5543 6 14.3333 6C14.1123 6 13.9004 6.0878 13.7441 6.24408C13.5878 6.40036 13.5 6.61232 13.5 6.83333C13.5 7.05435 13.5878 7.26631 13.7441 7.42259C13.9004 7.57887 14.1123 7.66667 14.3333 7.66667V7.66667ZM6.83333 10.1667C7.05435 10.1667 7.26631 10.0789 7.42259 9.92259C7.57887 9.76631 7.66667 9.55435 7.66667 9.33333C7.66667 9.11232 7.57887 8.90036 7.42259 8.74408C7.26631 8.5878 7.05435 8.5 6.83333 8.5C6.61232 8.5 6.40036 8.5878 6.24408 8.74408C6.0878 8.90036 6 9.11232 6 9.33333C6 9.55435 6.0878 9.76631 6.24408 9.92259C6.40036 10.0789 6.61232 10.1667 6.83333 10.1667V10.1667ZM9.33333 10.1667C9.55435 10.1667 9.76631 10.0789 9.92259 9.92259C10.0789 9.76631 10.1667 9.55435 10.1667 9.33333C10.1667 9.11232 10.0789 8.90036 9.92259 8.74408C9.76631 8.5878 9.55435 8.5 9.33333 8.5C9.11232 8.5 8.90036 8.5878 8.74408 8.74408C8.5878 8.90036 8.5 9.11232 8.5 9.33333C8.5 9.55435 8.5878 9.76631 8.74408 9.92259C8.90036 10.0789 9.11232 10.1667 9.33333 10.1667ZM11.8333 10.1667C12.0543 10.1667 12.2663 10.0789 12.4226 9.92259C12.5789 9.76631 12.6667 9.55435 12.6667 9.33333C12.6667 9.11232 12.5789 8.90036 12.4226 8.74408C12.2663 8.5878 12.0543 8.5 11.8333 8.5C11.6123 8.5 11.4004 8.5878 11.2441 8.74408C11.0878 8.90036 11 9.11232 11 9.33333C11 9.55435 11.0878 9.76631 11.2441 9.92259C11.4004 10.0789 11.6123 10.1667 11.8333 10.1667V10.1667ZM14.3333 10.1667C14.5543 10.1667 14.7663 10.0789 14.9226 9.92259C15.0789 9.76631 15.1667 9.55435 15.1667 9.33333C15.1667 9.11232 15.0789 8.90036 14.9226 8.74408C14.7663 8.5878 14.5543 8.5 14.3333 8.5C14.1123 8.5 13.9004 8.5878 13.7441 8.74408C13.5878 8.90036 13.5 9.11232 13.5 9.33333C13.5 9.55435 13.5878 9.76631 13.7441 9.92259C13.9004 10.0789 14.1123 10.1667 14.3333 10.1667V10.1667ZM6.83333 12.6667C7.05435 12.6667 7.26631 12.5789 7.42259 12.4226C7.57887 12.2663 7.66667 12.0543 7.66667 11.8333C7.66667 11.6123 7.57887 11.4004 7.42259 11.2441C7.26631 11.0878 7.05435 11 6.83333 11C6.61232 11 6.40036 11.0878 6.24408 11.2441C6.0878 11.4004 6 11.6123 6 11.8333C6 12.0543 6.0878 12.2663 6.24408 12.4226C6.40036 12.5789 6.61232 12.6667 6.83333 12.6667V12.6667ZM9.33333 12.6667C9.55435 12.6667 9.76631 12.5789 9.92259 12.4226C10.0789 12.2663 10.1667 12.0543 10.1667 11.8333C10.1667 11.6123 10.0789 11.4004 9.92259 11.2441C9.76631 11.0878 9.55435 11 9.33333 11C9.11232 11 8.90036 11.0878 8.74408 11.2441C8.5878 11.4004 8.5 11.6123 8.5 11.8333C8.5 12.0543 8.5878 12.2663 8.74408 12.4226C8.90036 12.5789 9.11232 12.6667 9.33333 12.6667ZM11.8333 12.6667C12.0543 12.6667 12.2663 12.5789 12.4226 12.4226C12.5789 12.2663 12.6667 12.0543 12.6667 11.8333C12.6667 11.6123 12.5789 11.4004 12.4226 11.2441C12.2663 11.0878 12.0543 11 11.8333 11C11.6123 11 11.4004 11.0878 11.2441 11.2441C11.0878 11.4004 11 11.6123 11 11.8333C11 12.0543 11.0878 12.2663 11.2441 12.4226C11.4004 12.5789 11.6123 12.6667 11.8333 12.6667V12.6667Z" fill="url(#paint4_linear_621_10976)"/>
<path fill-rule="evenodd" clip-rule="evenodd" d="M15.5832 1.83301H5.58317C5.14114 1.83301 4.71722 2.0086 4.40466 2.32116C4.0921 2.63372 3.9165 3.05765 3.9165 3.49967L3.9165 13.4997C3.9165 13.9417 4.0921 14.3656 4.40466 14.6782C4.71722 14.9907 5.14114 15.1663 5.58317 15.1663H15.5832C16.0252 15.1663 16.4491 14.9907 16.7617 14.6782C17.0742 14.3656 17.2498 13.9417 17.2498 13.4997V3.49967C17.2498 3.05765 17.0742 2.63372 16.7617 2.32116C16.4491 2.0086 16.0252 1.83301 15.5832 1.83301V1.83301ZM4.74984 5.04717C4.74984 4.65301 5.12317 4.33301 5.58317 4.33301H15.5832C16.0432 4.33301 16.4165 4.65301 16.4165 5.04717V13.6188C16.4165 14.013 16.0432 14.333 15.5832 14.333H5.58317C5.12317 14.333 4.74984 14.013 4.74984 13.6188V5.04717Z" fill="#414F5C"/>
<path fill-rule="evenodd" clip-rule="evenodd" d="M15.5833 1.83311C15.7192 1.83311 15.8535 1.84972 15.9833 1.88181C16.2755 1.95407 16.5454 2.10483 16.7618 2.32126C17.0743 2.63382 17.2499 3.05774 17.2499 3.49977V13.4998C17.2499 13.9418 17.0743 14.3657 16.7618 14.6783C16.4492 14.9908 16.0253 15.1664 15.5833 15.1664H5.58327C5.14124 15.1664 4.71732 14.9908 4.40476 14.6783C4.0922 14.3657 3.9166 13.9418 3.9166 13.4998V3.49977C3.9166 3.05774 4.0922 2.63382 4.40476 2.32126C4.71732 2.0087 5.14124 1.83311 5.58327 1.83311H15.5833ZM5.58327 1.43311C5.03515 1.43311 4.50949 1.65084 4.12191 2.03842C3.73434 2.42599 3.5166 2.95166 3.5166 3.49977V13.4998C3.5166 14.0479 3.73434 14.5736 4.12191 14.9611C4.50949 15.3487 5.03515 15.5664 5.58327 15.5664H15.5833C16.1314 15.5664 16.657 15.3487 17.0446 14.9611C17.4322 14.5736 17.6499 14.0479 17.6499 13.4998V3.49977C17.6499 2.95166 17.4322 2.42599 17.0446 2.03842C16.657 1.65084 16.1314 1.43311 15.5833 1.43311H5.58327ZM5.58327 4.73311C5.28407 4.73311 5.14994 4.92969 5.14994 5.04727V13.6189C5.14994 13.7365 5.28407 13.9331 5.58327 13.9331H15.5833C15.8825 13.9331 16.0166 13.7365 16.0166 13.6189V5.04727C16.0166 4.92969 15.8825 4.73311 15.5833 4.73311H5.58327ZM5.58327 4.33311C5.12327 4.33311 4.74994 4.65311 4.74994 5.04727V13.6189C4.74994 14.0131 5.12327 14.3331 5.58327 14.3331H15.5833C16.0433 14.3331 16.4166 14.0131 16.4166 13.6189V5.04727C16.4166 4.65311 16.0433 4.33311 15.5833 4.33311H5.58327Z" fill="#414F5C"/>
</svg>
