<svg width="24" height="24" viewBox="0 0 24 24" fill="none" xmlns="http://www.w3.org/2000/svg">
<g clip-path="url(#clip0_1506_19019)">
<path fill-rule="evenodd" clip-rule="evenodd" d="M10.4219 0.6525C11.2919 -0.2175 12.7019 -0.2175 13.5719 0.6525L23.3444 10.4265C24.2144 11.2965 24.2144 12.705 23.3444 13.5735L13.5719 23.3475C12.7019 24.2175 11.2934 24.2175 10.4249 23.3475L0.649409 13.575C0.442504 13.3685 0.278354 13.1233 0.166354 12.8533C0.054354 12.5832 -0.0032959 12.2938 -0.0032959 12.0015C-0.0032959 11.7092 0.054354 11.4198 0.166354 11.1497C0.278354 10.8797 0.442504 10.6345 0.649409 10.428L10.4219 0.6525ZM12.5219 1.7025C12.3827 1.56327 12.1938 1.48505 11.9969 1.48505C11.8 1.48505 11.6112 1.56327 11.4719 1.7025L1.69791 11.475C1.55868 11.6142 1.48046 11.8031 1.48046 12C1.48046 12.1969 1.55868 12.3858 1.69791 12.525L11.4719 22.299C11.6112 22.4382 11.8 22.5164 11.9969 22.5164C12.1938 22.5164 12.3827 22.4382 12.5219 22.299L22.2959 12.525C22.4351 12.3858 22.5134 12.1969 22.5134 12C22.5134 11.8031 22.4351 11.6142 22.2959 11.475L12.5219 1.701V1.7025Z" fill="#E44160"/>
<path d="M7.875 9.0495H9.855C9.855 7.878 10.542 6.9735 11.895 6.9735C12.9225 6.9735 13.8645 7.488 13.8645 8.7255C13.8645 9.678 13.3035 10.116 12.417 10.782C11.4075 11.5155 10.608 12.372 10.665 13.7625L10.6755 14.457H12.636V13.9245C12.636 12.8475 13.0455 12.534 14.151 11.6955C15.0645 11.001 16.017 10.23 16.017 8.6115C16.017 6.345 14.103 5.25 12.0075 5.25C10.0185 5.25 7.8285 6.2205 7.8765 9.0495H7.875ZM10.218 17.3235C10.218 18.123 10.8555 18.714 11.733 18.714C12.6465 18.714 13.275 18.123 13.275 17.3235C13.275 16.4955 12.645 15.9135 11.7315 15.9135C10.8555 15.9135 10.218 16.4955 10.218 17.3235Z" fill="#414F5C"/>
</g>
<defs>
<clipPath id="clip0_1506_19019">
<rect width="24" height="24" fill="white"/>
</clipPath>
</defs>
</svg>
