<svg width="32" height="32" viewBox="0 0 32 32" fill="none" xmlns="http://www.w3.org/2000/svg">
<path fill-rule="evenodd" clip-rule="evenodd" d="M16.9519 1.6665C17.6525 1.66636 18.3462 1.80424 18.9935 2.07227C19.6408 2.34032 20.229 2.73329 20.7244 3.22873C20.7244 3.22874 20.7243 3.22872 20.7244 3.22873L26.1043 8.6087C26.5998 9.10411 26.9928 9.69228 27.2608 10.3396C27.5288 10.9869 27.6667 11.6806 27.6666 12.3812C27.6666 12.3813 27.6666 12.3811 27.6666 12.3812V24.9998C27.6666 25.7002 27.5286 26.3937 27.2606 27.0408C26.9926 27.6879 26.5997 28.2758 26.1045 28.7711C25.6092 29.2663 25.0213 29.6592 24.3742 29.9272C23.7272 30.1952 23.0336 30.3332 22.3333 30.3332H9.66658C8.9662 30.3332 8.27268 30.1952 7.62561 29.9272C6.97854 29.6592 6.39059 29.2663 5.89535 28.7711C5.4001 28.2758 5.00725 27.6879 4.73923 27.0408C4.4712 26.3937 4.33325 25.7002 4.33325 24.9998V6.99984C4.33325 5.58535 4.89515 4.22879 5.89535 3.2286C6.89554 2.22841 8.2521 1.6665 9.66658 1.6665H16.9519C16.9518 1.6665 16.952 1.6665 16.9519 1.6665ZM18.2283 3.92011C17.8237 3.75257 17.3901 3.6664 16.9522 3.6665L9.66658 3.6665C8.78253 3.6665 7.93468 4.01769 7.30956 4.64281C6.68444 5.26794 6.33325 6.11578 6.33325 6.99984V24.9998C6.33325 25.4376 6.41947 25.871 6.58699 26.2754C6.7545 26.6799 7.00003 27.0473 7.30956 27.3569C7.61909 27.6664 7.98656 27.9119 8.39097 28.0794C8.79539 28.2469 9.22884 28.3332 9.66658 28.3332H22.3333C22.771 28.3332 23.2044 28.2469 23.6089 28.0794C24.0133 27.9119 24.3807 27.6664 24.6903 27.3569C24.9998 27.0473 25.2453 26.6799 25.4129 26.2754C25.5804 25.871 25.6666 25.4376 25.6666 24.9998V12.3812C25.6667 11.9433 25.5805 11.5094 25.413 11.1048C25.2454 10.7002 24.9998 10.3326 24.6902 10.023L19.3101 4.64294C19.0005 4.33329 18.6329 4.08764 18.2283 3.92011Z" fill="#E44160"/>
<path fill-rule="evenodd" clip-rule="evenodd" d="M9.14575 16.5505C9.14575 14.5254 10.7874 12.8838 12.8124 12.8838H19.1874C21.2125 12.8838 22.8541 14.5254 22.8541 16.5505V21.7912C22.8541 23.8163 21.2125 25.4579 19.1874 25.4579H12.8124C10.7874 25.4579 9.14575 23.8163 9.14575 21.7912V16.5505ZM12.8124 14.8838C11.8919 14.8838 11.1458 15.63 11.1458 16.5505V18.2954H15.5207L15.5207 14.8838H12.8124ZM17.5207 14.8838L17.5208 23.4579H19.1874C20.1079 23.4579 20.8541 22.7117 20.8541 21.7912V16.5505C20.8541 15.63 20.1079 14.8838 19.1874 14.8838H17.5207ZM15.5208 23.4579L15.5208 20.2954H11.1458V21.7912C11.1458 22.7117 11.8919 23.4579 12.8124 23.4579H15.5208Z" fill="#414F5C"/>
</svg>
