<svg width="20" height="24" viewBox="0 0 34 38" fill="none" xmlns="http://www.w3.org/2000/svg">
<path d="M24.9776 4.62509L33.0525 28.3558C33.182 28.7445 33.0999 29.1862 32.824 29.5841C32.5482 29.9821 32.101 30.3041 31.5804 30.4795L12.1142 37.04C11.592 37.216 11.0386 37.2303 10.5757 37.0796C10.1129 36.9289 9.77847 36.6257 9.64609 36.2366L0.499175 9.35519C0.36679 8.96613 0.447264 8.52309 0.722895 8.12354C0.998526 7.72399 1.44674 7.40066 1.96892 7.22467L18.5819 1.62577C18.6654 1.59659 18.7526 1.58009 18.8384 1.57725C18.9241 1.5744 19.0066 1.58526 19.0812 1.60919L24.6953 4.35166C24.8381 4.40327 24.9394 4.5014 24.9776 4.62509Z" fill="#D71F26"/>
<path d="M24.6916 4.3607L19.0816 1.62443C19.0071 1.6005 18.9246 1.58964 18.8389 1.59248C18.7531 1.59533 18.6659 1.61183 18.5824 1.641L11.7044 3.95903L21.845 33.7608L31.5817 30.4793C32.1039 30.3033 32.5521 29.98 32.8278 29.5804C33.1034 29.1809 33.1839 28.7378 33.0515 28.3488L24.9767 4.61806C24.9331 4.50057 24.8313 4.40862 24.6916 4.3607Z" fill="#EE323E"/>
<path d="M7.06873 16.5448L11.9539 30.9016C12.3786 32.1498 13.9111 32.7612 15.3767 32.2672L26.0559 28.6681C27.5216 28.1742 28.3655 26.7619 27.9407 25.5137L23.0556 11.1569C22.6309 9.90873 21.0984 9.2973 19.6327 9.79126L8.95352 13.3904C7.48786 13.8843 6.64401 15.2966 7.06873 16.5448Z" fill="#FFE078"/>
<path d="M7.10082 16.9383L11.7404 30.5733C12.248 32.065 13.7968 32.8954 15.1941 32.4245L26.3116 28.6776C27.7089 28.2067 28.4321 26.6106 27.9245 25.119L23.2849 11.4839C22.7774 9.99227 21.2285 9.1619 19.8313 9.63279L8.7137 13.3796C7.31046 13.8508 6.59272 15.4451 7.10082 16.9383ZM15.1385 32.2612C13.849 32.6957 12.4137 31.912 11.9374 30.5121L9.79439 24.2141L10.5688 23.9531C10.5773 23.978 10.598 23.9971 10.6106 24.0223C10.6607 24.1094 10.7138 24.1938 10.7719 24.2748C10.8 24.3156 10.83 24.3558 10.86 24.396C10.9178 24.4701 10.9763 24.5405 11.0386 24.6097C11.0648 24.639 11.0892 24.6689 11.1173 24.6976C11.2026 24.7868 11.2942 24.8703 11.3894 24.9527C11.4282 24.9829 11.467 25.0132 11.5076 25.0429C11.5713 25.0925 11.6363 25.1399 11.7045 25.1846C11.7388 25.2077 11.7705 25.2351 11.809 25.2586C11.8866 25.307 11.9673 25.3526 12.0482 25.393L12.0833 25.4124C12.1637 25.4511 12.2435 25.4884 12.3406 25.5285L12.3665 25.5388C12.4513 25.5727 12.5346 25.6018 12.6204 25.6267L12.6552 25.6392C12.8465 25.6967 13.0448 25.739 13.2478 25.7654L13.3278 25.7731L13.3738 25.7767L13.5453 25.79L13.6597 25.7913L13.7274 25.7928L15.8445 32.0145L15.1385 32.2612ZM16.0517 31.9534L13.9526 25.7845C13.9845 25.7824 14.0124 25.7747 14.0443 25.7727C14.1497 25.7638 14.255 25.7498 14.3598 25.7305L14.4898 25.7058C14.6253 25.6781 14.7594 25.6422 14.8909 25.5983C15.5909 25.3584 16.2001 24.924 16.6194 24.3656C16.674 24.2991 16.7323 24.2349 16.7941 24.1732L19.0927 30.9285L16.0517 31.9534ZM19.2936 30.8608L16.9649 24.0168C17.0542 23.9349 17.149 23.8578 17.2487 23.7859L17.337 23.7284C17.4254 23.6709 17.5166 23.6159 17.6112 23.5649L17.7118 23.5137C17.838 23.4511 17.9686 23.3967 18.1023 23.3509L18.5918 23.1859C18.7296 23.1399 18.8704 23.1034 19.0128 23.077C19.0639 23.0597 19.1173 23.0608 19.1697 23.0535C19.2577 23.0391 19.346 23.029 19.4343 23.0233C19.4957 23.0183 19.5568 23.0184 19.618 23.0186C19.6791 23.0188 19.7774 23.0204 19.8568 23.0266C19.9363 23.0327 19.9787 23.0375 20.0383 23.0452L20.1358 23.0626L22.4297 29.8039L19.2936 30.8608ZM22.6306 29.7362L20.3706 23.0944L20.386 23.0979C21.0599 23.2879 21.809 23.2646 22.5114 23.0318C22.6333 22.9896 22.7527 22.9407 22.8687 22.8853L22.9199 22.8681C23.0307 22.8146 23.1384 22.7557 23.2426 22.6917L23.2627 22.685L25.3501 28.8196L22.6306 29.7362ZM25.5971 18.8952L27.738 25.187C28.2143 26.5869 27.5528 28.0773 26.2652 28.5112L25.5565 28.7501L23.4495 22.5578C23.4792 22.5374 23.5037 22.5136 23.5328 22.4916C23.5943 22.4449 23.6552 22.3966 23.7151 22.3452C23.775 22.2938 23.8104 22.2663 23.8531 22.2242C23.9332 22.1486 24.0045 22.0709 24.0838 21.9869C24.1262 21.9379 24.1657 21.8865 24.2057 21.8366C24.2458 21.7867 24.2866 21.7331 24.325 21.6785L24.4297 21.5253C24.4904 21.4286 24.5482 21.3293 24.599 21.2272C24.6161 21.1937 24.6296 21.1615 24.6448 21.1286C24.6886 21.0358 24.7276 20.9412 24.7638 20.844L24.7989 20.7438C24.8865 20.4775 24.9424 20.2064 24.9655 19.9351L24.969 19.8975C24.9887 19.6325 24.9782 19.3688 24.9374 19.1106L25.5971 18.8952ZM19.8991 9.80237C21.1868 9.3684 22.6221 10.1521 23.0984 11.552L25.2398 17.8453L24.586 18.0657C24.5081 17.9166 24.4191 17.7728 24.3194 17.6354C23.6308 16.6885 22.4938 16.1354 21.2756 16.187L19.185 10.043L19.8991 9.80237ZM18.9951 10.1071L21.1269 16.3724L21.2009 16.3683C22.3973 16.2945 23.5214 16.8398 24.1847 17.79C24.2819 17.9283 24.3673 18.0733 24.4403 18.224L24.4748 18.2956L25.2986 18.018L25.542 18.7335L24.7055 19.0154L24.7108 19.031L24.7304 19.1544L24.7396 19.2172L24.7486 19.2436C24.7564 19.3086 24.7648 19.3751 24.7708 19.4407C24.7777 19.4609 24.7736 19.4848 24.7738 19.5091C24.7892 19.7873 24.7676 20.0692 24.7094 20.3491L24.6955 20.4041C24.6714 20.5128 24.6403 20.6186 24.6013 20.7254L24.5708 20.8154C24.5303 20.9269 24.4835 21.037 24.4306 21.1453C24.4102 21.1869 24.3855 21.2281 24.3627 21.2687C24.3399 21.3094 24.2891 21.3993 24.2491 21.4613C24.2091 21.5234 24.1871 21.5603 24.1525 21.6083C24.118 21.6564 24.0579 21.7373 24.0133 21.7974C23.9686 21.8576 23.9025 21.9266 23.844 21.988C23.7854 22.0493 23.7521 22.0831 23.7027 22.1292C23.6532 22.1754 23.6158 22.2088 23.5697 22.2469C23.4917 22.3135 23.4097 22.3764 23.3243 22.4353L23.2798 22.4659C23.1593 22.5453 23.0338 22.6183 22.9042 22.6844L22.8512 22.7023C22.725 22.7647 22.5945 22.8191 22.4608 22.8651C21.8036 23.0827 21.1027 23.1044 20.4723 22.9266L20.4135 22.9153L20.3054 22.891L20.2531 22.8809L20.2215 22.8777L20.073 22.848L20.0756 22.8558L19.9174 22.8397C19.8338 22.8332 19.7499 22.832 19.6642 22.8314C19.5785 22.8308 19.5294 22.83 19.4615 22.8339C19.3673 22.8403 19.2732 22.8512 19.1794 22.8665C19.1203 22.8722 19.0613 22.8805 19.0026 22.8914C18.8477 22.9207 18.6945 22.9607 18.5445 23.0111L18.0496 23.1779C17.9084 23.226 17.7707 23.2834 17.6377 23.3497C17.5866 23.3669 17.5444 23.3985 17.4977 23.4229C17.4117 23.4692 17.3267 23.5186 17.2483 23.5693C17.2019 23.6006 17.155 23.6303 17.111 23.6624C17.0391 23.7144 16.9724 23.7698 16.9063 23.8268L16.9026 23.8159L16.7873 23.9258L16.7782 23.9289L16.7444 23.9611C16.6451 24.0573 16.5532 24.159 16.4692 24.2654C16.0764 24.7881 15.5059 25.1948 14.8505 25.4195C14.7067 25.4663 14.5601 25.5035 14.4119 25.5309L14.3054 25.5529C14.171 25.5736 14.0361 25.5866 13.9014 25.592C13.1345 25.6128 12.4064 25.4057 11.8343 25.0038C11.7733 24.962 11.7122 24.9202 11.6543 24.8755C11.5963 24.8309 11.5641 24.8019 11.5208 24.7645C11.4405 24.6962 11.3658 24.626 11.2931 24.55C11.2587 24.5147 11.2274 24.4767 11.1943 24.4393C11.134 24.3695 11.0775 24.3053 11.0218 24.2253C10.9923 24.1867 10.9642 24.1459 10.9361 24.1051C10.8819 24.0216 10.83 23.935 10.7805 23.8454C10.7726 23.8221 10.756 23.8034 10.7444 23.7813L10.7086 23.7118L9.72233 24.0442L9.47887 23.3287L10.4213 23.0111L10.405 22.9334C10.4024 22.9279 10.4004 22.9222 10.3992 22.9163C10.3754 22.7925 10.3608 22.6657 10.3508 22.5407L10.3444 22.4319C10.3407 22.3135 10.3394 22.1961 10.3499 22.0833C10.3457 22.0709 10.3501 22.0538 10.3508 22.0379C10.3624 21.9088 10.3817 21.7796 10.4084 21.6509C10.4148 21.6158 10.4235 21.5817 10.4323 21.5475C10.4564 21.4366 10.4868 21.3262 10.5234 21.2169C10.7114 20.6526 11.0737 20.1318 11.5679 19.7154L11.5952 19.694C11.6543 19.6463 11.7163 19.6012 11.777 19.5582C11.8931 19.477 12.0147 19.4025 12.1408 19.335L12.2297 19.2912C12.366 19.2227 12.507 19.163 12.6515 19.1126C13.307 18.8954 14.0059 18.873 14.6353 19.0492C14.7687 19.0834 14.9058 19.1085 15.0455 19.1241L15.0903 19.1299L15.103 19.1256L15.2701 19.1438L15.2664 19.1329C15.3555 19.1376 15.4446 19.1422 15.5335 19.14L15.6628 19.1311C15.7726 19.1237 15.8825 19.1109 15.9918 19.093C16.032 19.0795 16.0751 19.0806 16.1169 19.0717C16.2653 19.0423 16.4121 19.0039 16.5562 18.9566L17.0913 18.7762C17.6468 18.5918 18.1434 18.2718 18.519 17.8564L18.5544 17.8167L16.2441 11.0272L18.9951 10.1071ZM16.0727 11.0919L18.3555 17.8006C18.0024 18.1713 17.5449 18.4548 17.0373 18.6176L16.5186 18.7924C16.385 18.8366 16.2487 18.8721 16.1109 18.8986L16.0034 18.9175C15.8948 18.9363 15.7857 18.9494 15.6766 18.9565L15.5852 18.9631C15.4636 18.966 15.3426 18.9621 15.223 18.9516L12.9091 12.1512L16.0727 11.0919ZM12.7358 12.2165L15.0159 18.9174C14.9268 18.906 14.839 18.8899 14.7531 18.869C14.0809 18.6821 13.3348 18.7069 12.6353 18.9395C12.5031 18.9853 12.3736 19.0383 12.2475 19.0979L12.1359 19.1529C12.0337 19.2057 11.9342 19.2629 11.8379 19.3244L11.7764 19.359L9.69269 13.2352L12.7358 12.2165ZM11.5961 19.4874L11.5365 19.5335L11.4998 19.5632L11.4581 19.5963C11.412 19.6344 11.3688 19.6749 11.3176 19.7217L11.2863 19.7496L11.2356 19.7979C11.164 19.8688 11.0948 19.9407 11.0309 20.016L10.994 20.0631C10.942 20.1257 10.8905 20.1898 10.8419 20.2565L10.7988 20.3213C10.7552 20.3845 10.7139 20.4487 10.675 20.5139L10.6385 20.5799C10.6066 20.6358 10.577 20.6925 10.548 20.7509L10.5402 20.7639L10.5278 20.7872L10.5006 20.8449C10.4786 20.8939 10.4569 20.9498 10.4346 21.0041L10.4119 21.0568L10.3977 21.0928L10.3881 21.1186C10.3793 21.1406 10.3758 21.1661 10.367 21.1881C10.3332 21.2862 10.3048 21.3824 10.281 21.4858L10.254 21.592C10.2279 21.7187 10.207 21.8489 10.194 21.9781C10.191 22.0051 10.1921 22.0325 10.1891 22.0595C10.1812 22.1679 10.1799 22.2776 10.1809 22.3882C10.1828 22.424 10.183 22.4603 10.1855 22.4976C10.1917 22.6327 10.206 22.7668 10.2285 22.8992L9.42488 23.1701L7.28346 16.8768C6.80712 15.4769 7.4686 13.9865 8.75807 13.5519L9.46673 13.3131L11.5961 19.4874Z" fill="#856628"/>
</svg>
