<svg width="24" height="24" viewBox="0 0 24 24" fill="none" xmlns="http://www.w3.org/2000/svg">
<path fill-rule="evenodd" clip-rule="evenodd" d="M2.91652 9.93498L20.7224 4.98167L21.69 5.74705V18.1664L20.7224 18.9318L11.9292 16.6284C11.8322 17.0319 11.6556 17.4119 11.4099 17.7463C11.1642 18.0807 10.8542 18.3627 10.4981 18.5757C10.142 18.7888 9.747 18.9287 9.33619 18.9872C8.92537 19.0457 8.50702 19.0216 8.10561 18.9164C7.70421 18.8112 7.32783 18.627 6.99852 18.3745C6.66921 18.122 6.39359 17.8064 6.18779 17.446C5.98199 17.0857 5.85016 16.6879 5.80001 16.276C5.74986 15.8641 5.7824 15.4463 5.89573 15.0471L2.91652 14.2673L2.31 13.5019V10.7004L2.91652 9.93498ZM7.25753 15.4038C7.22565 15.5179 7.20628 15.6351 7.19976 15.7533C7.19905 16.158 7.34363 16.5496 7.60721 16.8567C7.8708 17.1638 8.23587 17.3661 8.63602 17.4268C9.03617 17.4875 9.44481 17.4025 9.78761 17.1874C10.1304 16.9722 10.3846 16.6412 10.5039 16.2544L7.25753 15.4038ZM3.75411 12.8954L20.2459 17.2422V6.65685L3.75411 11.3069V12.8954Z" fill="#D4364E"/>
</svg>
