<svg width="54" height="20" viewBox="0 0 54 20" fill="none" xmlns="http://www.w3.org/2000/svg">
<path fill-rule="evenodd" clip-rule="evenodd" d="M6.8148 0H2.19442V3.91189H0V8.22907H2.19442V13.2969C2.19442 17.2793 5.35646 19.8132 9.25112 19.8132H11.9881V15.6793H9.24075C8.59918 15.6793 7.98389 15.4194 7.53023 14.9567C7.07657 14.4941 6.82171 13.8666 6.82171 13.2123V8.22907H9.86279C10.4379 8.20978 10.9828 7.96199 11.3812 7.53859C11.7795 7.1152 11.9998 6.54976 11.995 5.963V3.91189H6.81134L6.8148 0ZM33.3966 13.3921C33.3966 14.0463 33.1418 14.6738 32.6881 15.1365C32.2345 15.5991 31.6192 15.859 30.9776 15.859C30.336 15.859 29.7207 15.5991 29.2671 15.1365C28.8134 14.6738 28.5586 14.0463 28.5586 13.3921V6.18502C28.5572 5.88512 28.4979 5.58843 28.3841 5.31189C28.2703 5.03535 28.1042 4.78437 27.8953 4.57329C27.6864 4.36221 27.4388 4.19516 27.1666 4.08168C26.8944 3.96819 26.6029 3.9105 26.3088 3.91189H23.8898V12.7789C23.8898 16.7648 26.0186 20 30.9534 20C35.8883 20 38.0343 16.7648 38.0343 12.7789V3.91189H33.3966V13.3921ZM54 12.3348C53.9654 7.40088 51.3494 3.52423 46.4699 3.52423C42.2884 3.52423 38.9052 6.97445 38.9052 11.7251C38.9052 16.8529 41.9808 19.8943 46.5079 19.9859C47.9041 19.9867 49.2748 19.6038 50.4758 18.8776C51.6768 18.1514 52.6638 17.1087 53.333 15.859L49.0997 14.7207C48.8002 15.1444 48.4045 15.4878 47.9466 15.7216C47.4886 15.9555 46.9819 16.0727 46.4699 16.0634C44.8249 16.0634 43.4772 14.8476 43.4357 13.3815H54C54 13.1524 54 12.5991 54 12.3559V12.3348ZM43.4357 10.1392C43.4772 8.67665 44.818 7.48194 46.4699 7.48194C48.1217 7.48194 49.4937 8.66255 49.5179 10.1392H43.4357ZM20.1195 3.91189H19.494C18.6495 3.91143 17.8132 4.08078 17.0329 4.41026C16.2526 4.73974 15.5437 5.22288 14.9467 5.83204C14.3497 6.4412 13.8763 7.16443 13.5537 7.96034C13.231 8.75625 13.0654 9.60923 13.0663 10.4705V19.8132H17.7178V10.7031C17.7178 10.0518 17.9703 9.42702 18.4202 8.96488C18.8701 8.50274 19.481 8.24078 20.1195 8.23612H22.8323V3.91189H20.1195Z" fill="#ED1C24"/>
</svg>
