<svg width="45" height="29" viewBox="0 0 45 29" fill="none" xmlns="http://www.w3.org/2000/svg">
<path d="M36.4395 0H0V23.1498H36.4395V0Z" fill="#6E6F70"/>
<path d="M36.4395 0H18.8628V23.1498H36.4395V0Z" fill="#57595A"/>
<path d="M33.8674 1.71484H2.14355V21.0064H33.8674V1.71484Z" fill="#E44160"/>
<path d="M33.8674 1.71484H2.14355L18.9119 11.8092L33.8674 21.0064V1.71484Z" fill="#C13852"/>
<path d="M24.8644 23.1499H11.5747V27.8656H24.8644V23.1499Z" fill="#4E4D4D"/>
<path d="M25.722 27.0083H10.7175V28.2944H25.722V27.0083Z" fill="#6E6F70"/>
<path d="M25.722 27.0083H18.8628V28.2944H25.722V27.0083Z" fill="#57595A"/>
<g clip-path="url(#clip0_431_30218)">
<path d="M29.68 28.3173C29.68 28.5735 29.4733 28.7811 29.2181 28.7811H28.2481C27.9929 28.7811 27.7861 28.5735 27.7861 28.3173C27.7861 28.0613 27.9929 27.8535 28.2481 27.8535H29.2181C29.4733 27.8535 29.68 28.0613 29.68 28.3173Z" fill="#2C3C4B"/>
<path d="M42.6622 28.3173C42.6622 28.5735 42.4551 28.7811 42.1999 28.7811H41.2299C40.9747 28.7811 40.7676 28.5735 40.7676 28.3173C40.7676 28.0613 40.9747 27.8535 41.2299 27.8535H42.1999C42.4551 27.8535 42.6622 28.0613 42.6622 28.3173Z" fill="#2C3C4B"/>
<path d="M40.1548 24.0558C40.0531 24.2024 39.8525 24.2382 39.7066 24.1358C39.5606 24.0338 39.5251 23.8324 39.6269 23.6862L44.1797 17.1382C44.2816 16.9918 44.4822 16.9561 44.6282 17.0582C44.7739 17.1602 44.8096 17.3617 44.7079 17.5083L40.1548 24.0557V24.0558Z" fill="#2C3C4B"/>
<path d="M31.0506 24.0558C31.1524 24.2024 31.3533 24.2382 31.4986 24.1358C31.6445 24.0337 31.6802 23.8324 31.5786 23.6861L27.0254 17.1382C26.9238 16.9918 26.7232 16.9561 26.5772 17.0582C26.4316 17.1602 26.3955 17.3617 26.4975 17.5083L31.0506 24.0558Z" fill="#2C3C4B"/>
<path d="M43.8337 27.2789C43.8337 27.8206 43.3961 28.2596 42.8565 28.2596H27.5909C27.0516 28.2596 26.614 27.8206 26.614 27.2789V24.4172C26.614 23.8754 27.0516 23.4365 27.5909 23.4365H42.8565C43.3961 23.4365 43.8337 23.8755 43.8337 24.4172V27.2789Z" fill="#D9EAEC"/>
<path d="M40.9062 25.5625H29.5422C29.2526 25.5625 29.0181 25.798 29.0181 26.0889V28.2594H41.4307V26.0889C41.4307 25.798 41.1957 25.5625 40.9062 25.5625Z" fill="#2C3C4B"/>
<path d="M30.898 27.1428C30.898 27.2572 30.8056 27.35 30.6915 27.35H29.6893C29.5752 27.35 29.4829 27.2572 29.4829 27.1428C29.4829 27.0283 29.5753 26.9355 29.6893 26.9355H30.6915C30.8055 26.9355 30.898 27.0283 30.898 27.1428Z" fill="#71BCC3"/>
<path d="M32.1246 27.1428C32.1246 27.2572 32.0645 27.35 31.9904 27.35H31.3374C31.2632 27.35 31.2031 27.2572 31.2031 27.1428C31.2031 27.0283 31.2632 26.9355 31.3374 26.9355H31.9904C32.0645 26.9355 32.1246 27.0283 32.1246 27.1428Z" fill="#71BCC3"/>
<path d="M33.467 27.1428C33.467 27.2572 33.4069 27.35 33.3327 27.35H32.6801C32.6059 27.35 32.5461 27.2572 32.5461 27.1428C32.5461 27.0283 32.6058 26.9355 32.6801 26.9355H33.3327C33.4069 26.9355 33.467 27.0283 33.467 27.1428Z" fill="#71BCC3"/>
<path d="M34.8099 27.1428C34.8099 27.2572 34.7499 27.35 34.6757 27.35H34.0227C33.9486 27.35 33.8884 27.2572 33.8884 27.1428C33.8884 27.0283 33.9486 26.9355 34.0227 26.9355H34.6757C34.7499 26.9355 34.8099 27.0283 34.8099 27.1428Z" fill="#71BCC3"/>
<path d="M38.0227 27.1428C38.0227 27.2572 37.9626 27.35 37.8884 27.35H37.2358C37.1616 27.35 37.1016 27.2572 37.1016 27.1428C37.1016 27.0283 37.1617 26.9355 37.2358 26.9355H37.8884C37.9626 26.9355 38.0227 27.0283 38.0227 27.1428Z" fill="#E36A5D"/>
<path d="M39.3654 27.1428C39.3654 27.2572 39.3052 27.35 39.2311 27.35H38.5785C38.5043 27.35 38.4438 27.2572 38.4438 27.1428C38.4438 27.0283 38.5043 26.9355 38.5785 26.9355H39.2311C39.3053 26.9355 39.3654 27.0283 39.3654 27.1428Z" fill="#E36A5D"/>
<path d="M40.7078 27.1428C40.7078 27.2572 40.6477 27.35 40.5735 27.35H39.9209C39.8464 27.35 39.7866 27.2572 39.7866 27.1428C39.7866 27.0283 39.8464 26.9355 39.9209 26.9355H40.5735C40.6477 26.9355 40.7078 27.0283 40.7078 27.1428Z" fill="#E36A5D"/>
<path d="M43.139 24.839C43.139 25.1207 42.9112 25.3489 42.6307 25.3489C42.3501 25.3489 42.1223 25.1207 42.1223 24.839C42.1223 24.5572 42.3501 24.3286 42.6307 24.3286C42.9113 24.3286 43.139 24.5571 43.139 24.839Z" fill="#DA4643"/>
</g>
<defs>
<clipPath id="clip0_431_30218">
<rect width="18.3261" height="11.7811" fill="white" transform="translate(26.4395 17)"/>
</clipPath>
</defs>
</svg>
