<svg width="24" height="24" viewBox="0 0 24 24" fill="none" xmlns="http://www.w3.org/2000/svg">
<path d="M20 12V5.749C20.0001 5.67006 19.9845 5.59189 19.9543 5.51896C19.9241 5.44603 19.8798 5.37978 19.824 5.324L16.676 2.176C16.5636 2.06345 16.4111 2.00014 16.252 2H4.6C4.44087 2 4.28826 2.06321 4.17574 2.17574C4.06321 2.28826 4 2.44087 4 2.6V21.4C4 21.5591 4.06321 21.7117 4.17574 21.8243C4.28826 21.9368 4.44087 22 4.6 22H11M8 10H16M8 6H12M8 14H11" stroke="#E44160" stroke-width="1.5" stroke-linecap="round" stroke-linejoin="round"/>
<path d="M16 2V5.4C16 5.55913 16.0632 5.71174 16.1757 5.82426C16.2883 5.93679 16.4409 6 16.6 6H20" stroke="#E44160" stroke-width="1.5" stroke-linecap="round" stroke-linejoin="round"/>
<path d="M16.215 14.186L15.306 16.113L13.273 16.424C13.012 16.464 12.907 16.8 13.097 16.992L14.567 18.492L14.22 20.61C14.176 20.882 14.448 21.09 14.682 20.961L16.5 19.961L18.318 20.961C18.551 21.09 18.824 20.882 18.78 20.61L18.433 18.492L19.904 16.992C20.092 16.8 19.988 16.464 19.727 16.424L17.695 16.113L16.785 14.186C16.7605 14.1309 16.7205 14.0841 16.6699 14.0513C16.6194 14.0185 16.5604 14.001 16.5 14.001C16.4397 14.001 16.3807 14.0185 16.3301 14.0513C16.2796 14.0841 16.2396 14.1309 16.215 14.186Z" stroke="#414F5C" stroke-width="1.5" stroke-linecap="round" stroke-linejoin="round"/>
</svg>
