<svg width="32" height="32" viewBox="0 0 32 32" fill="none" xmlns="http://www.w3.org/2000/svg">
<g clip-path="url(#clip0_97_11880)">
<path d="M16 32C17.0609 32 18.0783 31.5786 18.8284 30.8284C19.5786 30.0783 20 29.0609 20 28H12C12 29.0609 12.4214 30.0783 13.1716 30.8284C13.9217 31.5786 14.9391 32 16 32Z" fill="#E44160"/>
<path fill-rule="evenodd" clip-rule="evenodd" d="M16 3.83598L14.406 4.15798C12.5979 4.52638 10.9727 5.50819 9.8053 6.93723C8.63795 8.36626 8.0002 10.1548 8 12C8 13.256 7.732 16.394 7.082 19.484C6.762 21.018 6.33 22.616 5.756 24H26.244C25.67 22.616 25.24 21.02 24.918 19.484C24.268 16.394 24 13.256 24 12C23.9993 10.1551 23.3614 8.36708 22.1941 6.93845C21.0267 5.50982 19.4017 4.52831 17.594 4.15998L16 3.83398V3.83598ZM28.44 24C28.886 24.894 29.402 25.602 30 26H2C2.598 25.602 3.114 24.894 3.56 24C5.36 20.4 6 13.76 6 12C6 7.15998 9.44 3.11998 14.01 2.19798C13.9821 1.91989 14.0128 1.63903 14.1001 1.37353C14.1874 1.10802 14.3293 0.863759 14.5168 0.656496C14.7043 0.449233 14.9332 0.283569 15.1887 0.170189C15.4441 0.0568089 15.7205 -0.00177002 16 -0.00177002C16.2795 -0.00177002 16.5559 0.0568089 16.8113 0.170189C17.0668 0.283569 17.2957 0.449233 17.4832 0.656496C17.6707 0.863759 17.8126 1.10802 17.8999 1.37353C17.9872 1.63903 18.0179 1.91989 17.99 2.19798C20.2506 2.65778 22.2828 3.8847 23.7425 5.67098C25.2022 7.45726 25.9997 9.69313 26 12C26 13.76 26.64 20.4 28.44 24Z" fill="#E44160"/>
</g>
<defs>
<clipPath id="clip0_97_11880">
<rect width="32" height="32" fill="white"/>
</clipPath>
</defs>
</svg>
