<svg width="24" height="24" viewBox="0 0 24 24" fill="none" xmlns="http://www.w3.org/2000/svg">
<defs>
<clipPath id="clip0_570_4735">
<rect width="24" height="24" fill="white"/>
</clipPath>
</defs>
<g clip-path="url(#clip0_570_4735)">
<path fill-rule="evenodd" clip-rule="evenodd" d="M12.944 10.778H11.0559V9.54513C11.0559 9.29475 11.1553 9.05462 11.3324 8.87757C11.5094 8.70053 11.7496 8.60106 11.9999 8.60106C12.2503 8.60106 12.4904 8.70053 12.6675 8.87757C12.8445 9.05462 12.944 9.29475 12.944 9.54513V10.778ZM15.1921 11.2628C15.0027 11.0735 14.7722 10.9347 14.5216 10.8553V9.54513C14.5216 8.87633 14.256 8.23493 13.783 7.76202C13.3101 7.28911 12.6687 7.02344 11.9999 7.02344C11.3311 7.02344 10.6897 7.28911 10.2168 7.76202C9.74393 8.23493 9.47825 8.87633 9.47825 9.54513V10.8553C9.22763 10.9347 8.99715 11.0735 8.80781 11.2628C8.49739 11.5732 8.323 11.9943 8.323 12.4333V15.3214C8.323 15.7604 8.49739 16.1814 8.80781 16.4918C9.11823 16.8022 9.53925 16.9766 9.97825 16.9766H14.0216C14.4606 16.9766 14.8817 16.8022 15.1921 16.4918C15.5025 16.1814 15.6769 15.7604 15.6769 15.3214V12.4333C15.6769 11.9943 15.5025 11.5732 15.1921 11.2628ZM9.92336 12.3784C9.93792 12.3638 9.95766 12.3556 9.97825 12.3556H14.0216C14.0422 12.3556 14.062 12.3638 14.0765 12.3784C14.0911 12.3929 14.0993 12.4127 14.0993 12.4333V15.3214C14.0993 15.342 14.0911 15.3617 14.0765 15.3763C14.062 15.3908 14.0422 15.399 14.0216 15.399H9.97825C9.95766 15.399 9.93792 15.3908 9.92336 15.3763C9.9088 15.3617 9.90062 15.342 9.90062 15.3214V12.4333C9.90062 12.4127 9.9088 12.3929 9.92336 12.3784Z" fill="#414F5C"/>
<path fill-rule="evenodd" clip-rule="evenodd" d="M5.95553 7.03098C5.93012 6.93566 5.88615 6.84628 5.82614 6.76798C5.76614 6.68968 5.69127 6.62398 5.60584 6.57466C5.5204 6.52533 5.42608 6.49335 5.32826 6.48053C5.23045 6.46772 5.13107 6.47433 5.03581 6.49998L0.937732 7.59805C0.745355 7.6496 0.581334 7.77546 0.481752 7.94794C0.38217 8.12042 0.355185 8.3254 0.406732 8.51777C0.458279 8.71015 0.584137 8.87417 0.756618 8.97375C0.929099 9.07333 1.13407 9.10032 1.32645 9.04877L4.69992 8.14376L5.60288 11.5178C5.65443 11.7102 5.78029 11.8742 5.95277 11.9738C6.12525 12.0733 6.33023 12.1003 6.5226 12.0488C6.71498 11.9972 6.879 11.8714 6.97858 11.6989C7.07817 11.5264 7.10515 11.3214 7.0536 11.1291L5.95553 7.03098ZM23.593 15.4819C23.5676 15.3866 23.5236 15.2972 23.4636 15.2189C23.4036 15.1406 23.3288 15.0749 23.2433 15.0256C23.1579 14.9763 23.0636 14.9443 22.9658 14.9315C22.8679 14.9187 22.7686 14.9253 22.6733 14.9509L19.2998 15.856L18.3969 12.4819C18.3453 12.2896 18.2195 12.1255 18.047 12.026C17.8745 11.9264 17.6695 11.8994 17.4772 11.9509C17.2848 12.0025 17.1208 12.1283 17.0212 12.3008C16.9216 12.4733 16.8946 12.6783 16.9462 12.8707L18.0442 16.9687C18.0696 17.0641 18.1136 17.1534 18.1736 17.2317C18.2336 17.31 18.3085 17.3757 18.3939 17.4251C18.4794 17.4744 18.5737 17.5064 18.6715 17.5192C18.7693 17.532 18.8687 17.5254 18.9639 17.4997L23.062 16.4017C23.1573 16.3762 23.2467 16.3323 23.325 16.2723C23.4033 16.2123 23.469 16.1374 23.5183 16.052C23.5677 15.9665 23.5997 15.8722 23.6125 15.7744C23.6253 15.6766 23.6187 15.5772 23.593 15.4819Z" fill="#414F5C"/>
<path fill-rule="evenodd" clip-rule="evenodd" d="M15.7499 5.50479C14.6685 4.87933 13.4478 4.53419 12.199 4.50078C10.9502 4.46738 9.71288 4.74675 8.59958 5.3135C8.42329 5.39497 8.22227 5.40489 8.03883 5.34116C7.85538 5.27743 7.7038 5.14503 7.61599 4.97181C7.52818 4.79859 7.51098 4.59807 7.56801 4.41243C7.62505 4.22679 7.75187 4.07051 7.92178 3.97647C9.65137 3.09722 11.6188 2.80045 13.5308 3.13039C15.4428 3.46034 17.1969 4.39934 18.5318 5.80742C19.8666 7.21549 20.7107 9.01725 20.9382 10.9441C21.1657 12.871 20.7644 14.8198 19.7941 16.5C19.6946 16.6724 19.5306 16.7982 19.3383 16.8498C19.1459 16.9013 18.941 16.8743 18.7686 16.7748C18.5961 16.6752 18.4703 16.5112 18.4188 16.3189C18.3673 16.1266 18.3942 15.9217 18.4938 15.7492C19.4883 14.0266 19.7579 11.9794 19.243 10.0581C18.7282 8.13674 17.4712 6.4986 15.7486 5.50404L15.7499 5.50479ZM5.23019 7.22546C5.40245 7.32491 5.52815 7.48873 5.57963 7.68086C5.63111 7.873 5.60416 8.07771 5.50471 8.24998C4.69557 9.65033 4.36077 11.2747 4.55025 12.8809C4.73973 14.4871 5.44334 15.989 6.55613 17.1626C7.66892 18.3362 9.13127 19.1187 10.7251 19.3933C12.3189 19.6679 13.9588 19.42 15.4002 18.6865C15.4884 18.6377 15.5855 18.6071 15.6857 18.5967C15.786 18.5863 15.8873 18.5961 15.9836 18.6257C16.08 18.6553 16.1694 18.704 16.2464 18.769C16.3235 18.8339 16.3868 18.9137 16.4323 19.0035C16.4779 19.0934 16.5049 19.1916 16.5117 19.2921C16.5185 19.3927 16.5049 19.4936 16.4718 19.5888C16.4388 19.684 16.3868 19.7715 16.3192 19.8462C16.2515 19.9209 16.1695 19.9812 16.078 20.0235C14.3484 20.9027 12.381 21.1995 10.469 20.8696C8.55704 20.5396 6.80288 19.6006 5.46801 18.1925C4.13315 16.7845 3.28906 14.9827 3.06158 13.0558C2.8341 11.129 3.2354 9.18019 4.20567 7.49998C4.25498 7.41457 4.32065 7.33973 4.39891 7.27973C4.47718 7.21974 4.56651 7.17577 4.6618 7.15034C4.75708 7.12491 4.85644 7.11852 4.9542 7.13154C5.05195 7.14456 5.14618 7.17673 5.23149 7.22621L5.23019 7.22546Z" fill="#414F5C"/>
</g>
</svg>
