<svg width="32" height="32" viewBox="0 0 32 32" fill="none" xmlns="http://www.w3.org/2000/svg">
<defs>
<clipPath id="clip0_80_11314">
<rect width="32" height="32" fill="white"/>
</clipPath>
</defs>
<g clip-path="url(#clip0_80_11314)">
<path fill-rule="evenodd" clip-rule="evenodd" d="M0.486084 13.8581L1.51408 12.1421L16.0001 20.8341L30.4861 12.1421L31.5141 13.8581L16.0001 23.1661L0.486084 13.8601V13.8581Z" fill="#E44160"/>
<path fill-rule="evenodd" clip-rule="evenodd" d="M14.3681 21.3601L1.50409 28.8641L0.496094 27.1361L13.3601 19.6321L14.3681 21.3601ZM17.6321 21.3601L30.4961 28.8641L31.5041 27.1361L18.6401 19.6321L17.6321 21.3601Z" fill="#E44160"/>
<path fill-rule="evenodd" clip-rule="evenodd" d="M16.94 2.63606C16.6506 2.48198 16.3278 2.40139 16 2.40139C15.6722 2.40139 15.3494 2.48198 15.06 2.63606L3.06 9.03606C2.74004 9.20643 2.47241 9.46055 2.2857 9.77126C2.09899 10.082 2.00024 10.4376 2 10.8001V28.0001C2 28.5305 2.21071 29.0392 2.58579 29.4143C2.96086 29.7893 3.46957 30.0001 4 30.0001H28C28.5304 30.0001 29.0391 29.7893 29.4142 29.4143C29.7893 29.0392 30 28.5305 30 28.0001V10.8001C29.9998 10.4376 29.901 10.082 29.7143 9.77126C29.5276 9.46055 29.26 9.20643 28.94 9.03606L16.94 2.63606ZM14.12 0.870058C14.6992 0.561209 15.3456 0.399658 16.002 0.399658C16.6584 0.399658 17.3048 0.561209 17.884 0.870058L29.884 7.27006C30.5235 7.61149 31.0581 8.12028 31.4308 8.74204C31.8035 9.3638 32.0003 10.0752 32 10.8001V28.0001C32 29.0609 31.5786 30.0783 30.8284 30.8285C30.0783 31.5786 29.0609 32.0001 28 32.0001H4C2.93913 32.0001 1.92172 31.5786 1.17157 30.8285C0.421427 30.0783 2.00078e-08 29.0609 2.00078e-08 28.0001V10.8001C-7.24933e-05 10.0749 0.196961 9.36345 0.570028 8.74168C0.943095 8.1199 1.47816 7.61122 2.118 7.27006L14.118 0.870058H14.12Z" fill="#E44160"/>
</g>
</svg>
