<svg width="16" height="17" viewBox="0 0 16 17" fill="none" xmlns="http://www.w3.org/2000/svg">
<g clip-path="url(#clip0_570_11366)">
<path d="M0 0.5H1V16.5H0V0.5ZM1 15.5H16V16.5H1V15.5Z" fill="#6F869A"/>
<path fill-rule="evenodd" clip-rule="evenodd" d="M14.39 4.81201L10.041 10.25L7 7.20701L3.354 10.854L2.646 10.146L7 5.79301L9.959 8.75001L13.609 4.18701L14.39 4.81101V4.81201Z" fill="#6F869A"/>
<path fill-rule="evenodd" clip-rule="evenodd" d="M10 4C10 3.86739 10.0527 3.74021 10.1464 3.64645C10.2402 3.55268 10.3674 3.5 10.5 3.5H14.5C14.6326 3.5 14.7598 3.55268 14.8536 3.64645C14.9473 3.74021 15 3.86739 15 4V8C15 8.13261 14.9473 8.25979 14.8536 8.35355C14.7598 8.44732 14.6326 8.5 14.5 8.5C14.3674 8.5 14.2402 8.44732 14.1464 8.35355C14.0527 8.25979 14 8.13261 14 8V4.5H10.5C10.3674 4.5 10.2402 4.44732 10.1464 4.35355C10.0527 4.25979 10 4.13261 10 4Z" fill="#6F869A"/>
</g>
<defs>
<clipPath id="clip0_570_11366">
<rect width="16" height="16" fill="white" transform="translate(0 0.5)"/>
</clipPath>
</defs>
</svg>
