<svg width="17" height="16" viewBox="0 0 17 16" fill="none" xmlns="http://www.w3.org/2000/svg">
<g clip-path="url(#clip0_570_11383)">
<path fill-rule="evenodd" clip-rule="evenodd" d="M2.99683 13.5V7H3.99683V13.5C3.99683 13.6326 4.0495 13.7598 4.14327 13.8536C4.23704 13.9473 4.36422 14 4.49683 14H13.4968C13.6294 14 13.7566 13.9473 13.8504 13.8536C13.9441 13.7598 13.9968 13.6326 13.9968 13.5V7H14.9968V13.5C14.9968 13.8978 14.8388 14.2794 14.5575 14.5607C14.2762 14.842 13.8947 15 13.4968 15H4.49683C4.099 15 3.71747 14.842 3.43617 14.5607C3.15486 14.2794 2.99683 13.8978 2.99683 13.5ZM13.9968 2.5V6L11.9968 4V2.5C11.9968 2.36739 12.0495 2.24021 12.1433 2.14645C12.237 2.05268 12.3642 2 12.4968 2H13.4968C13.6294 2 13.7566 2.05268 13.8504 2.14645C13.9441 2.24021 13.9968 2.36739 13.9968 2.5Z" fill="#6F869A"/>
<path fill-rule="evenodd" clip-rule="evenodd" d="M8.28985 1.5C8.47738 1.31253 8.73168 1.20721 8.99685 1.20721C9.26201 1.20721 9.51632 1.31253 9.70385 1.5L16.3508 8.146C16.4447 8.23989 16.4975 8.36723 16.4975 8.5C16.4975 8.63278 16.4447 8.76011 16.3508 8.854C16.257 8.94789 16.1296 9.00063 15.9968 9.00063C15.8641 9.00063 15.7367 8.94789 15.6428 8.854L8.99685 2.207L2.35085 8.854C2.25696 8.94789 2.12962 9.00063 1.99685 9.00063C1.86407 9.00063 1.73673 8.94789 1.64285 8.854C1.54896 8.76011 1.49622 8.63278 1.49622 8.5C1.49622 8.36723 1.54896 8.23989 1.64285 8.146L8.28985 1.5Z" fill="#6F869A"/>
</g>
<defs>
<clipPath id="clip0_570_11383">
<rect width="16" height="16" fill="white" transform="translate(0.996826)"/>
</clipPath>
</defs>
</svg>
