<svg width="14" height="11" viewBox="0 0 14 11" fill="none" xmlns="http://www.w3.org/2000/svg">
<path fill-rule="evenodd" clip-rule="evenodd" d="M0.944391 4.12349L12.815 0.821289L13.46 1.33154V9.61112L12.815 10.1214L6.95286 8.5858C6.88818 8.85477 6.77047 9.10813 6.60664 9.33104C6.44281 9.55396 6.23616 9.74194 5.99877 9.88399C5.76138 10.026 5.49804 10.1193 5.22417 10.1583C4.95029 10.1973 4.67138 10.1813 4.40378 10.1111C4.13618 10.041 3.88526 9.91816 3.66572 9.74984C3.44618 9.58152 3.26243 9.37109 3.12523 9.13087C2.98803 8.89065 2.90015 8.62547 2.86671 8.35086C2.83328 8.07624 2.85497 7.79772 2.93053 7.5316L0.944391 7.01172L0.540039 6.50147V4.63375L0.944391 4.12349ZM3.83839 7.7694C3.81714 7.84543 3.80423 7.92355 3.79988 8.00238C3.7994 8.2722 3.89579 8.53322 4.07152 8.73797C4.24724 8.94272 4.49062 9.07759 4.75739 9.11805C5.02416 9.15851 5.29658 9.10187 5.52511 8.95843C5.75364 8.81499 5.92309 8.59428 6.00264 8.33645L3.83839 7.7694ZM1.50278 6.09711L12.4973 8.99497V1.93807L1.50278 5.0381V6.09711Z" fill="#6F869A"/>
</svg>
