<svg width="32" height="32" viewBox="0 0 32 32" fill="none" xmlns="http://www.w3.org/2000/svg">
<g clip-path="url(#clip0_79_11245)">
<path fill-rule="evenodd" clip-rule="evenodd" d="M16 11.5334C14.2695 11.5334 12.8666 12.9362 12.8666 14.6667C12.8666 16.3972 14.2695 17.8 16 17.8C17.7305 17.8 19.1333 16.3972 19.1333 14.6667C19.1333 12.9362 17.7305 11.5334 16 11.5334ZM11.1333 14.6667C11.1333 11.9789 13.3122 9.80005 16 9.80005C18.6878 9.80005 20.8666 11.9789 20.8666 14.6667C20.8666 17.3545 18.6878 19.5334 16 19.5334C13.3122 19.5334 11.1333 17.3545 11.1333 14.6667Z" fill="#E44160"/>
<path fill-rule="evenodd" clip-rule="evenodd" d="M15.9999 5.13354C14.1144 5.13354 12.2712 5.69265 10.7035 6.74017C9.13577 7.78768 7.91386 9.27656 7.19229 11.0185C6.47072 12.7605 6.2819 14.6773 6.6497 16.5266C7.01748 18.3757 7.9254 20.0744 9.25852 21.4077C9.25858 21.4077 9.25865 21.4078 9.25872 21.4079L14.9169 27.0647C15.2044 27.3519 15.5942 27.5133 16.0006 27.5133C16.4067 27.5133 16.7969 27.3518 17.0846 27.0644L22.7411 21.4078C22.7412 21.4078 22.7412 21.4078 22.7412 21.4078C24.0744 20.0745 24.9823 18.3758 25.3501 16.5266C25.7179 14.6773 25.5291 12.7605 24.8075 11.0185C24.0859 9.27656 22.864 7.78768 21.2963 6.74017C19.7285 5.69265 17.8854 5.13354 15.9999 5.13354ZM24.1554 22.822C25.7683 21.209 26.8667 19.1539 27.3117 16.9167C27.7566 14.6795 27.5282 12.3605 26.6552 10.2531C25.7823 8.14572 24.304 6.34449 22.4074 5.07722C20.5108 3.80995 18.2809 3.13354 15.9999 3.13354C13.7188 3.13354 11.489 3.80995 9.59238 5.07722C7.69574 6.34449 6.21749 8.14572 5.34454 10.2531C4.47159 12.3605 4.24316 14.6795 4.68812 16.9167C5.13309 19.1539 6.23156 21.2091 7.84447 22.8221L13.5034 28.4796C14.1659 29.1415 15.0641 29.5133 16.0006 29.5133C16.937 29.5133 17.8355 29.1412 18.498 28.4793L24.1554 22.822Z" fill="#E44160"/>
</g>
<defs>
<clipPath id="clip0_79_11245">
<rect width="32" height="32" fill="white"/>
</clipPath>
</defs>
</svg>
