<svg width="18" height="18" viewBox="0 0 18 18" fill="none" xmlns="http://www.w3.org/2000/svg">
<path d="M16.1343 3.52088C14.7611 1.74066 12.9334 0.603297 10.6908 0.158242C10.4932 0.118681 10.2858 0.0989011 10.0882 0.0692308C9.98939 0.0593407 9.8906 0.0494506 9.79181 0.0296703C9.76217 0.0296703 9.73253 0.0197802 9.70289 0.00989011C9.68313 0.00989011 9.67325 0 9.6535 0L8.37907 0H8.35931C8.26052 0.00989011 8.16173 0.0296703 8.07281 0.0395604C7.86535 0.0692308 7.64801 0.0989011 7.44054 0.138462C5.34614 0.514286 3.57775 1.52308 2.1749 3.14505C1.03879 4.45055 0.337359 6.0033 0.0804989 7.76374C0.0607404 7.9022 0.0409819 8.04066 0.0311026 8.16923L0.00146484 8.36703V9.63297V9.65275C0.0113441 9.75165 0.0311026 9.85055 0.0409819 9.94945C0.0706196 10.1571 0.100257 10.3846 0.139774 10.5923C0.534945 12.778 1.62166 14.5978 3.35053 16.0121C4.67435 17.0901 6.15624 17.733 7.75668 17.9209C8.20125 17.9703 8.62605 18 9.05086 18C11.9751 18 14.3955 16.7637 16.2627 14.311C17.221 13.0549 17.7841 11.5813 17.9521 9.93956C18.1793 7.55604 17.5668 5.39011 16.1343 3.52088ZM7.24296 5.44945C7.71716 4.98462 8.33955 4.72747 8.99159 4.72747C9.00146 4.72747 9.01134 4.72747 9.02122 4.72747C9.68313 4.73736 10.3154 5.0044 10.7896 5.48901C11.2539 5.97363 11.5108 6.5967 11.5009 7.24945C11.4812 8.62418 10.3648 9.73187 9.00146 9.73187C8.99159 9.73187 8.99159 9.73187 8.98171 9.73187C7.60849 9.73187 6.49213 8.6044 6.49213 7.22967C6.49213 6.55714 6.75887 5.92418 7.24296 5.44945ZM8.41859 10.9681C11.086 10.7604 13.2594 11.8385 14.8796 14.1527C13.4076 15.844 11.2737 16.8132 9.01134 16.8231C9.01134 16.8231 9.01134 16.8231 9.00146 16.8231C6.73912 16.8231 4.61508 15.8538 3.13319 14.1626C4.43725 12.2044 6.21552 11.1363 8.41859 10.9681ZM12.6864 7.17033C12.6765 6.14176 12.2814 5.25165 11.5207 4.53956C10.0289 3.14506 7.68752 3.22418 6.29455 4.70769C5.58324 5.46923 5.22759 6.51758 5.32638 7.58571C5.4153 8.56483 5.87962 9.44506 6.64032 10.0879C5.78083 10.3549 4.99049 10.7407 4.28906 11.2451C3.558 11.7692 2.92572 12.4121 2.39224 13.1538C0.712771 10.6022 0.534945 6.41868 3.48884 3.46154C6.44274 0.524176 11.165 0.415385 14.2473 3.21429C17.4581 6.13187 17.3396 10.4637 15.6107 13.1538C14.524 11.6604 13.0915 10.6319 11.3428 10.0879C12.2517 9.30659 12.6963 8.32747 12.6864 7.17033Z" fill="#414F5C"/>
</svg>
